<svg version="1" xmlns="http://www.w3.org/2000/svg" width="682.667" height="682.667" viewBox="0 0 512.000000 512.000000"><path d="M20.8 9.8l-10.8.3v4.4c0 5.9 0 5.8-1.3 7.4-.9 1.2-.9 1.3.1.7.9-.5 1.2.8 1.2 5.6 0 4.4-.3 5.9-1 4.8-.6-.9-1-1-1-.3 0 .6.4 1.4.9 1.7 1.3.8 1.1 11.9-.2 13.5-.9 1.2-.9 1.3 0 .7 1-.5 1.3.4 1.3 3.3 0 2.6-.5 4.1-1.2 4.1-1 0-1 .2 0 .9 1.4.8 1.3 4.6-.2 7-.6 1-.5 1.2.3.7 1.4-.9 1.1 3-.3 5.3-.6 1-.5 1.2.2.7.9-.5 1.2 1.1 1.2 5.6 0 4.4-.3 5.9-1 4.8-.6-.9-1-1-1-.3 0 .6.4 1.4.9 1.7 1.3.8 1.1 11.9-.2 13.5-.9 1.2-.9 1.3 0 .7 1-.5 1.3.4 1.3 3.3 0 2.6-.5 4.1-1.2 4.1-1 0-1 .2 0 .9 1.4.8 1.3 4.6-.2 7-.6 1-.5 1.2.3.7 1.4-.9 1.1 3-.3 5.3-.6 1-.5 1.2.2.7.9-.5 1.2 1.1 1.2 5.6 0 4.4-.3 5.9-1 4.8-.6-.9-1-1-1-.3 0 .6.4 1.4.9 1.7 1.3.8 1.1 11.9-.2 13.5-.9 1.2-.9 1.3 0 .7 1-.5 1.3.4 1.3 3.3 0 2.6-.5 4.1-1.2 4.1-1 0-1 .2 0 .9 1.4.8 1.3 4.6-.2 7-.6 1-.5 1.2.3.7 1.4-.9 1.1 3-.3 5.3-.6 1-.5 1.2.2.7.9-.5 1.2 1.1 1.2 5.6 0 4.4-.3 5.9-1 4.8-.6-.9-1-1-1-.3 0 .6.4 1.4.9 1.7 1.3.8 1.1 11.9-.2 13.5-.9 1.2-.9 1.3 0 .7 1-.5 1.3.4 1.3 3.3 0 2.6-.5 4.1-1.2 4.1-1 0-1 .2 0 .9 1.4.8 1.3 4.6-.2 7-.6 1-.5 1.2.3.7 1.4-.9 1.1 3-.3 5.3-.6 1-.5 1.2.2.7.9-.5 1.2 1.1 1.2 5.6 0 4.4-.3 5.9-1 4.8-.6-.9-1-1-1-.3 0 .6.4 1.4.9 1.7 1.3.8 1.1 11.9-.2 13.5-.9 1.2-.9 1.3.1.7.9-.5 1.2.4 1.2 3.3 0 2.6-.5 4.1-1.2 4.1-1 0-1 .2 0 .9 1.4.8 1.3 4.6-.2 7-.6 1-.5 1.2.3.7 1.4-.9 1.1 3-.3 5.3-.6 1-.5 1.2.2.7.9-.5 1.2 1.1 1.2 5.6 0 4.4-.3 5.9-1 4.8-.6-.9-1-1-1-.3 0 .6.4 1.4.9 1.7 1.3.8 1.1 11.9-.2 13.5-.9 1.2-.9 1.3 0 .7 1-.5 1.3.4 1.3 3.3 0 2.6-.5 4.1-1.2 4.1-1 0-1 .2 0 .9 1.4.8 1.3 4.6-.2 7-.6 1-.5 1.2.3.7 1.4-.9 1.1 3-.3 5.3-.6 1-.5 1.2.2.7.9-.5 1.2 1.1 1.2 5.6 0 4.4-.3 5.9-1 4.8-.6-.9-1-1-1-.3 0 .6.4 1.4.9 1.7 1.3.8 1.1 11.9-.2 13.5-.9 1.2-.9 1.3.1.7.9-.5 1.2.4 1.2 3.3 0 2.6-.5 4.1-1.2 4.1-1 0-1 .2 0 .9 1.4.8 1.3 4.6-.2 7-.6 1-.5 1.2.3.7 1.4-.9 1.1 3-.3 5.3-.6 1-.5 1.2.2.7.9-.5 1.2 1.1 1.2 5.6 0 4.4-.3 5.9-1 4.8-.6-.9-1-1-1-.3 0 .6.4 1.4.9 1.7 1.3.8 1.1 11.9-.2 13.5-.9 1.2-.9 1.3 0 .7 1-.5 1.3.4 1.3 3.3 0 2.6-.5 4.1-1.2 4.1-1 0-1 .2 0 .9 1.4.8 1.3 4.6-.2 7-.6 1-.5 1.2.3.7 1.4-.9 1.1 3-.3 5.3-.6 1-.5 1.2.2.7.9-.5 1.2 1.1 1.2 5.6 0 4.4-.3 5.9-1 4.8-.6-.9-1-1-1-.3 0 .6.4 1.4.9 1.7 1.3.8 1.1 11.9-.2 13.5-.9 1.2-.9 1.3 0 .7 1-.5 1.3.4 1.3 3.3 0 2.6-.5 4.1-1.2 4.1-1 0-1 .2 0 .9 1.4.8 1.3 4.6-.2 7-.6 1-.5 1.2.3.7 1.4-.9 1.1 3-.3 5.3-.6 1-.5 1.2.2.7.9-.5 1.2 1.1 1.2 5.6 0 4.4-.3 5.9-1 4.8-.6-.9-1-1-1-.3 0 .6.4 1.4.9 1.7 1.3.8 1.1 11.9-.2 13.5-.9 1.2-.9 1.3 0 .7 1-.5 1.3.4 1.3 3.3 0 2.6-.5 4.1-1.2 4.1-1 0-1 .2 0 .9 1.4.8 1.3 4.6-.2 7-.6 1-.5 1.2.3.7.8-.6 1.1 0 .9 2-.4 3.3 1.8 4.1 10.3 4 4.1-.1 5.5.2 5.2 1.2-.3.6 0 1.2.6 1.2s1.1-.6 1.1-1.3c0-.9 3.1-1.2 12.5-1.2 9.5 0 12.2.3 11 1.1-1.3 1-1.1 1.2.9 1.2 1.4-.1 2.3-.5 2-1.2-.3-.8 2.7-1.1 10-1.1 7.9 0 10.2.3 9.9 1.2-.3.7 0 1.3.6 1.3s1.1-.6 1.1-1.3c0-.9 3.1-1.2 12.5-1.2 9.5 0 12.2.3 11 1.1-1.3 1-1.1 1.1.9 1.1 1.4.1 2.3-.4 2-1.1-.3-.8 2.7-1.1 10-1.1 7.9 0 10.2.3 9.9 1.2-.3.7 0 1.3.6 1.3s1.1-.6 1.1-1.3c0-.9 3.1-1.2 12.5-1.2 9.5 0 12.2.3 11 1.1-1.3 1-1.1 1.2.9 1.2 1.4 0 2.3-.5 2-1.2-.3-.8 2.7-1.1 10-1.1 7.9 0 10.2.3 9.9 1.2-.3.7 0 1.3.6 1.3s1.1-.6 1.1-1.3c0-.9 3.1-1.2 12.5-1.2 9.5 0 12.2.3 11 1.1-1.3 1-1.1 1.1.9 1.1 1.4 0 2.3-.4 2-1.1-.3-.8 2.7-1.1 10-1.1 7.9 0 10.2.3 9.9 1.2-.3.7 0 1.3.6 1.3s1.1-.6 1.1-1.3c0-.9 3.1-1.2 12.5-1.2 9.5 0 12.2.3 11 1.1-1.3 1-1.1 1.1.9 1.1 1.4 0 2.3-.4 2-1.1-.3-.8 2.7-1.1 10-1.1 7.9 0 10.2.3 9.9 1.3-.3.6 0 1.2.6 1.2s1.1-.6 1.1-1.3c0-.9 3.1-1.2 12.5-1.2 9.5 0 12.2.3 11 1.1-1.3 1-1.1 1.1.9 1.1 1.4 0 2.3-.4 2-1.1-.3-.8 2.7-1.1 10-1.1 7.9 0 10.2.3 9.9 1.2-.3.7 0 1.3.6 1.3s1.1-.6 1.1-1.3c0-.9 3.1-1.2 12.5-1.2 9.5 0 12.2.3 11 1.1-1.3 1-1.1 1.1.9 1.1 1.4 0 2.3-.4 2-1.1-.3-.8 2.7-1.1 10-1.1 7.9 0 10.2.3 9.9 1.2-.3.7 0 1.3.6 1.3s1.1-.6 1.1-1.3c0-.9 3.1-1.2 12.5-1.2 9.5 0 12.2.3 11 1.1-1.3 1-1.1 1.2.9 1.2 1.4 0 2.3-.5 2-1.2-.3-.8 2.7-1.1 10-1.1 7.9 0 10.2.3 9.9 1.2-.3.7 0 1.3.6 1.3s1.1-.6 1.1-1.3c0-.9 3.1-1.2 12.5-1.2 9.5 0 12.2.3 11 1.1-1.3 1-1.1 1.1.9 1.1 1.4 0 2.3-.4 2-1.1-.3-.8 2.7-1.1 10-1.1 7.9 0 10.2.3 9.9 1.2-.3.7 0 1.3.6 1.3s1.1-.6 1.1-1.3c0-.9 3.1-1.2 12.5-1.2 9.5 0 12.2.3 11 1.1-1.3 1-1.1 1.2.9 1.2 1.4 0 2.3-.5 2-1.2-.3-.7 1.6-1.1 5.5-1.1 3.9-.1 5.8.3 5.4 1-.3.5 0 .4.8-.2.7-.7 1.9-1.3 2.7-1.3.7 0 2-.7 2.8-1.5 1-.9 1.1-1.5.4-1.5-1.7 0-1-9.1.9-11.5 1.5-1.8 1.5-1.9-.2-.6-1.7 1.3-1.8 1.2-1.4-1.5.3-1.6 1-2.8 1.6-2.6.7.1 1-.2.6-.8-.3-.6-1.1-.8-1.7-.4-1.6 1-.6-7.9 1.1-10.1 1.5-1.8 1.5-1.9-.2-.6-1.7 1.3-1.8 1.2-1.4-1.5.3-1.6 1-2.8 1.6-2.6.7.1 1-.2.6-.8-.3-.6-1.1-.8-1.7-.4-1.6 1-.6-7.9 1.1-10.1 1.5-1.8 1.5-1.9-.2-.6-1.7 1.3-1.8 1.2-1.4-1.5.3-1.6 1-2.8 1.6-2.6.7.1 1-.2.6-.8-.3-.6-1.1-.8-1.7-.4-1.6 1-.6-7.9 1.1-10.1 1.5-1.8 1.5-1.9-.2-.6-1.7 1.3-1.8 1.2-1.4-1.5.3-1.6 1-2.8 1.6-2.6.7.1 1-.2.6-.8-.3-.6-1.1-.8-1.7-.4-1.6 1-.6-7.9 1.1-10.1 1.5-1.8 1.5-1.9-.2-.6-1.7 1.3-1.8 1.2-1.4-1.5.3-1.6 1-2.8 1.6-2.6.7.1 1-.2.6-.8-.3-.6-1.1-.8-1.7-.4-1.6 1-.6-7.9 1.1-10.1 1.5-1.8 1.5-1.9-.2-.6-1.7 1.3-1.8 1.2-1.4-1.5.3-1.6 1-2.8 1.6-2.6.7.1 1-.2.6-.8-.3-.6-1.1-.8-1.7-.4-1.6 1-.6-7.9 1.1-10.1 1.5-1.8 1.5-1.9-.2-.6-1.7 1.3-1.8 1.2-1.4-1.5.3-1.6 1-2.8 1.6-2.6.7.1 1-.2.6-.8-.3-.6-1.1-.8-1.7-.4-1.6 1-.6-7.9 1.1-10.1 1.5-1.8 1.5-1.9-.2-.6-1.7 1.3-1.8 1.2-1.4-1.5.3-1.6 1-2.8 1.6-2.6.7.1 1-.2.6-.8-.3-.6-1.1-.8-1.7-.4-1.6 1-.6-7.9 1.1-10.1 1.5-1.8 1.5-1.9-.2-.6-1.7 1.3-1.8 1.2-1.4-1.5.3-1.6 1-2.8 1.6-2.6.7.1 1-.2.6-.8-.3-.6-1.1-.8-1.7-.4-1.6 1-.6-7.9 1.1-10.1 1.5-1.8 1.5-1.9-.2-.6-1.7 1.3-1.8 1.2-1.4-1.5.3-1.6 1-2.8 1.6-2.6.7.1 1-.2.6-.8-.3-.6-1.1-.8-1.7-.4-1.6 1-.6-7.9 1.1-10.1 1.5-1.8 1.5-1.9-.2-.6-1.7 1.3-1.8 1.2-1.4-1.5.3-1.6 1-2.8 1.6-2.6.7.1 1-.2.6-.8-.3-.6-1.1-.8-1.7-.4-1.6 1-.6-7.9 1.1-10.1 1.5-1.8 1.5-1.9-.2-.6-1.7 1.3-1.8 1.2-1.4-1.5.3-1.6 1-2.8 1.6-2.6.7.1 1-.2.6-.8-.3-.6-1.1-.8-1.7-.4-1.6 1-.6-7.9 1.1-10.1 1.5-1.8 1.5-1.9-.2-.6-1.7 1.3-1.8 1.2-1.4-1.5.3-1.6 1-2.8 1.6-2.6.7.1 1-.2.6-.8-.3-.6-1.1-.8-1.7-.4-1.6 1-.6-7.9 1.1-10.1 1.5-1.8 1.5-1.9-.2-.6-1.7 1.3-1.8 1.2-1.4-1.5.3-1.6 1-2.8 1.6-2.6.7.1 1-.2.6-.8-.3-.6-1.1-.8-1.7-.4-1.6 1-.6-7.9 1.1-10.1 1.5-1.8 1.5-1.9-.2-.6-1.7 1.3-1.8 1.2-1.4-1.5.3-1.6 1-2.8 1.6-2.6.7.1 1-.2.6-.8-.3-.6-1.1-.8-1.7-.4-1.6 1-.6-7.9 1.1-10.1 1.5-1.8 1.5-1.9-.2-.6-1.7 1.3-1.8 1.2-1.4-1.5.3-1.6 1-2.8 1.6-2.6.7.1 1-.2.6-.8-.3-.6-1.1-.8-1.7-.4-1.6 1-.6-7.9 1.1-10.1 1.5-1.8 1.5-1.9-.2-.6-1.7 1.3-1.8 1.2-1.4-1.5.3-1.6 1-2.8 1.6-2.6.7.1 1-.2.6-.8-.3-.6-1.1-.8-1.7-.4-1.6 1-.6-7.9 1.1-10.1 1.5-1.8 1.5-1.9-.2-.6-1.7 1.3-1.8 1.2-1.4-1.5.3-1.6 1-2.8 1.6-2.6.7.1 1-.2.6-.8-.3-.6-1.1-.8-1.7-.4-1.6 1-.6-7.9 1.1-10.1 1.5-1.8 1.5-1.9-.2-.6-1.7 1.3-1.8 1.2-1.4-1.5.3-1.6 1-2.8 1.6-2.6.7.1 1-.2.6-.8-.3-.6-1.1-.8-1.7-.4-1.6 1-.6-7.9 1.1-10.1 1.5-1.8 1.5-1.9-.2-.6-1.7 1.3-1.8 1.2-1.4-1.5.3-1.6 1-2.8 1.6-2.6.7.1 1-.2.6-.8-.3-.6-1.1-.8-1.7-.4-1.6 1-.6-7.9 1.1-10.1 1.5-1.8 1.5-1.9-.2-.6-1.7 1.3-1.8 1.2-1.4-1.5.3-1.6 1-2.8 1.6-2.6.7.1 1-.2.6-.8-.3-.6-1.1-.8-1.7-.4-1.6 1-.6-7.9 1.1-10.1 1.5-1.8 1.5-1.9-.2-.6-1.7 1.3-1.8 1.2-1.4-1.5.3-1.6 1-2.8 1.6-2.6.7.1 1-.2.6-.8-.3-.6-1.1-.8-1.7-.4-1.6 1-.6-7.9 1.1-10.1 1.5-1.8 1.5-1.9-.2-.6-1.7 1.3-1.8 1.2-1.4-1.5.3-1.6 1-2.8 1.6-2.6.7.1 1-.2.6-.8-.3-.6-1.1-.8-1.7-.4-1.6 1-.6-7.9 1.1-10.1 1.5-1.8 1.5-1.9-.2-.6-1.7 1.3-1.8 1.2-1.4-1.5.3-1.6 1-2.8 1.6-2.6.7.1 1-.2.6-.8-.3-.6-1.1-.8-1.7-.4-1.6 1-.6-7.9 1.1-10.1 1.5-1.8 1.5-1.9-.2-.6-1.7 1.3-1.8 1.2-1.4-1.5.3-1.6 1-2.8 1.6-2.6.7.1 1-.2.6-.8-.3-.6-1.1-.8-1.7-.4-1.6 1-.6-7.9 1.1-10.1 1.5-1.8 1.5-1.9-.2-.6-1.7 1.3-1.8 1.2-1.4-1.5.3-1.6 1-2.8 1.6-2.6.7.1 1-.2.6-.8-.3-.6-1.1-.8-1.7-.4-1.6 1-.6-7.9 1.1-10.1 1.5-1.8 1.5-1.9-.2-.6-1.7 1.3-1.8 1.2-1.4-1.5.3-1.6 1-2.8 1.6-2.6.7.1 1-.2.6-.8-.3-.6-1.1-.8-1.7-.4-1.6 1-.6-7.9 1.1-10.1 1.5-1.8 1.5-1.9-.2-.6-1.7 1.3-1.8 1.2-1.4-1.5.3-1.6 1-2.8 1.6-2.6.7.1 1-.2.6-.8-.3-.6-1.1-.8-1.7-.4-1.6 1-.6-7.9 1.1-10.1 1.5-1.8 1.5-1.9-.2-.6-1.7 1.3-1.8 1.2-1.4-1.5.3-1.6 1-2.8 1.6-2.6.7.1 1-.2.6-.8-.3-.6-1.1-.8-1.7-.4-1.6 1-.6-7.9 1.1-10.1 1.5-1.8 1.5-1.9 0-.7-1.4 1-1.6.4-1.6-5.4 0-3.5-.3-6.7-.6-7-.5-.5-461.7-1.1-480.9-.6zm15.1 27.5c-.9 1.9-.8 1.9.9-.3 1.7-2 2.9-2.4 8-2.5 3.4 0 5.9.2 5.6.6-.5 1 1.8 1.7 3.3 1.1.7-.2 1.1-.7.8-1.1-.2-.4.2-.8 1-.8 2 0 1.9 1.4-.1 2.5-1.4.8-1.4 1 .4 1.4 1.6.5 1.9.2 1.4-1.1-.5-1.4-.4-1.4 1.4-.1 1.5 1.1 1.6 1.1.7 0-1.9-2-1.6-2.6 1.1-2.6 1.4 0 2.2.4 2 .8-.3.5-1.1.5-1.7.1-.7-.4-.6 0 .2 1 1.5 1.8 2.6 2.3 1.6.7-.3-.6.1-1 1-1 1 0 1.3-.5.9-1.2-.5-.7-.3-.8.5-.4.7.5 1 1.4.7 2.2-.3.8-.1 1.4.4 1.4.6 0 1-1 1.1-2.3 0-1.2.3-1.6.6-.8.5 1.1.7 1.1 1.4 0s.9-1 .9.3c0 2 1.5 2.4 2.6.6.4-.7.3-.8-.4-.4s-1.2.2-1.2-.4c0-.7.6-1 1.3-.7.6.2 1.1 1.2 1.1 2.1-.1.9.2 1.6.7 1.6.5 0 .9-1 .9-2.3 0-1.7.2-1.9.9-.8.5.8.7 2.1.4 3-.3 1.2-.2 1.2.7-.2.6-.9 1.5-1.5 2-1.2.5.3 1.2 0 1.6-.6.4-.8.3-.9-.4-.5s-1.2.2-1.2-.4c0-.7.6-1 1.3-.7.6.2 1.1 1.2 1.1 2.1-.1.9.2 1.6.7 1.6.5 0 .9-1 1-2.3 0-1.2.3-1.6.6-.8.5 1.1.7 1.1 1.4 0s.9-1 .9.3c0 2 1.5 2.4 2.6.6.4-.7.3-.8-.4-.4s-1.2.2-1.2-.4c0-.7.6-1 1.3-.7.6.2 1.1 1.2 1.1 2.1-.1.9.2 1.6.7 1.6.5 0 .9-1 .9-2.3 0-1.7.2-1.9.9-.8.5.8.7 2.1.4 3-.4 1.3-.2 1.3.7-.1.6-.9 1.6-1.6 2.3-1.4.6.1.9.1.5-.1-2.5-1.4 1.1-1.8 17.1-1.8 9.9-.1 17.8.2 17.5.6-.6 1 1.8 1.7 3.3 1.1.7-.2 1.1-.7.8-1.1-.2-.4.2-.8 1-.8 2 0 1.9 1.4-.1 2.5-1.4.8-1.4 1 .4 1.4 1.6.5 1.9.2 1.4-1.1-.5-1.4-.4-1.4 1.4-.1 1.5 1.1 1.6 1.1.7 0-1.9-2-1.6-2.6 1.1-2.6 1.4 0 2.2.4 2 .8-.3.5-1.1.5-1.7.1-.7-.4-.6 0 .2 1 1.3 1.7 2.6 2.4 1.8.9-.3-.4.2-1.4 1.1-2.1 1.4-1.3 1.5-1.3 1 .6-.4 1.6-.2 2 .9 1.6.8-.3 1.2-1.1 1-1.8-.3-.6.1-1.2.9-1.2s1.3.6 1 1.4c-.3.7-.1 1.3.4 1.3.6 0 1-.6 1-1.3 0-.9 1.7-1.3 5.8-1.2 4.7.1 5.7.4 5.6 1.8-.1.9.2 1.7.7 1.7.5 0 .9-1 1-2.3 0-1.2.3-1.6.6-.8.5 1.1.7 1.1 1.4 0s.9-1 .9.3c0 2 1.5 2.4 2.6.6.4-.7.3-.8-.4-.4s-1.2.2-1.2-.4c0-.7.6-1 1.3-.7.6.2 1.1 1.2 1.1 2.1-.1.9.2 1.6.7 1.6.5 0 .9-1 .9-2.3 0-1.7.2-1.9.9-.8.5.8.7 2.1.4 3-.3 1.2-.2 1.2.7-.2.6-.9 1.5-1.5 2-1.2.5.3 1.2 0 1.6-.6.4-.8.3-.9-.4-.5s-1.2.2-1.2-.4c0-.7.6-1 1.3-.7.6.2 1.1 1.2 1.1 2.1-.1.9.2 1.6.7 1.6.5 0 .9-1 1-2.3 0-1.2.3-1.6.6-.8.5 1.1.7 1.1 1.4 0s.9-1 .9.3c0 2 1.5 2.4 2.6.6.4-.7.3-.8-.4-.4s-1.2.2-1.2-.4c0-.7.6-1 1.3-.7.6.2 1.1 1.2 1.1 2.1-.1.9.2 1.6.7 1.6.5 0 .9-1 .9-2.3 0-1.7.2-1.9.9-.8.5.8.7 2.1.4 3-.3 1.2-.2 1.2.7-.2.6-.9 1.5-1.5 2.1-1.2.5.3.7 0 .4-.7-.4-1 1.7-1.3 9.4-1.3 5.5 0 9.7.3 9.5.7-.6.9 1.8 1.6 3.3 1 .7-.2 1.1-.7.8-1.1-.2-.4.2-.8 1-.8 2 0 1.9 1.4-.1 2.5-1.4.8-1.4 1 .4 1.4 1.6.5 1.9.2 1.4-1.1-.5-1.4-.4-1.4 1.4-.1 1.5 1.1 1.6 1.1.7 0-1.9-2-1.6-2.6 1.1-2.6 1.4 0 2.2.4 2 .8-.3.5-1.1.5-1.7.1-.7-.4-.6 0 .2 1 1.5 1.8 2.6 2.3 1.6.7-.8-1.3 2.7-1.3 4.3 0 .9.7.9.7.2-.2-1.5-1.9-1.2-2.4 1.4-2.4 1.4 0 2.2.4 2 .8-.3.5-1.1.5-1.7.1-.7-.4-.6 0 .2 1 1.3 1.7 2.6 2.4 1.8.9-.3-.4.2-1.4 1.1-2.1 1.4-1.3 1.5-1.3 1 .6-.4 1.6-.2 2 .9 1.6.8-.3 1.2-1.1 1-1.8-.3-.6.1-1.2.9-1.2s1.3.6 1 1.4c-.3.7-.1 1.3.4 1.3.6 0 1-.6 1-1.3 0-.7 1.1-1.3 2.4-1.3 1.4 0 2.3.3 2 .7-.5.9 1.7 1.7 3.3 1.1.7-.2 1.1-.7.8-1.1-.2-.4.2-.8 1-.8 2 0 1.9 1.4-.1 2.5-1.4.8-1.4 1 .4 1.4 1.6.5 1.9.2 1.4-1.1-.5-1.4-.4-1.4 1.4-.1 1.5 1.1 1.6 1.1.7 0-1.9-2-1.6-2.6 1.1-2.6 1.4 0 2.2.4 2 .8-.3.5-1.1.5-1.7.1-.7-.4-.6 0 .2 1 1.5 1.8 2.6 2.3 1.6.7-.3-.6.1-1 1-1 1 0 1.3-.5.9-1.2-.5-.7-.3-.8.5-.4.7.5 1 1.4.7 2.2-.3.8-.1 1.4.4 1.4.6 0 1-1 1.1-2.3 0-1.2.3-1.6.6-.8.5 1.1.7 1.1 1.4 0s.9-1 .9.3c0 2 1.5 2.4 2.6.6.4-.7.3-.8-.4-.4s-1.2.2-1.2-.4c0-.7.6-1 1.3-.7.6.2 1.1 1.2 1.1 2.1-.1.9.2 1.6.7 1.6.5 0 .9-1 .9-2.3 0-1.7.2-1.9.9-.8.5.8.7 2.1.4 3-.3 1.2-.2 1.2.7-.2.6-.9 1.5-1.5 2-1.2.5.3 1.2 0 1.6-.6.4-.8.3-.9-.4-.5s-1.2.2-1.2-.4c0-.7.6-1 1.3-.7.6.2 1.1 1.2 1.1 2.1-.1.9.2 1.6.7 1.6.5 0 .9-1 1-2.3 0-1.2.3-1.6.6-.8.5 1.1.7 1.1 1.4 0s.9-1 .9.3c0 2 1.5 2.4 2.6.6.4-.7.3-.8-.4-.4s-1.2.2-1.2-.4c0-.7.6-1 1.2-.7.7.2 1.2 1.2 1.2 2.1-.1.9.2 1.6.7 1.6.5 0 .9-1 .9-2.3 0-1.7.2-1.9.9-.8.5.8.7 2.1.4 3-.4 1.3-.2 1.3.7-.1.6-.9 1.6-1.6 2.3-1.4.6.1.9.1.5-.1-2.5-1.4 1.1-1.8 17.1-1.8 9.9-.1 17.8.2 17.5.6-.6 1 1.8 1.7 3.3 1.1.7-.2 1.1-.7.8-1.1-.2-.4.2-.8 1-.8 2 0 1.9 1.4-.1 2.5-1.4.8-1.4 1 .4 1.4 1.6.5 1.9.2 1.4-1.1-.5-1.4-.4-1.4 1.4-.1 1.5 1.1 1.6 1.1.7 0-1.9-2-1.6-2.6 1.1-2.6 1.4 0 2.2.4 2 .8-.3.5-1 .6-1.5.3-1.5-1-1 .2.8 1.6.9.8 1.4.9 1.1.4-.3-.6.1-1.7 1-2.4 1.4-1.3 1.5-1.3 1 .6-.4 1.6-.2 2 .9 1.6.8-.3 1.2-1.1 1-1.8-.3-.6.1-1.2.9-1.2s1.3.6 1 1.4c-.3.7-.1 1.3.4 1.3.6 0 1-.6 1-1.3 0-.9 1.7-1.3 5.8-1.2 4.7.1 5.7.4 5.6 1.8-.1.9.2 1.7.7 1.7.5 0 .9-1 1-2.3 0-1.2.3-1.6.6-.8.5 1.1.7 1.1 1.4 0s.9-1 .9.3c0 2 1.5 2.4 2.6.6.4-.7.3-.8-.4-.4s-1.2.2-1.2-.4c0-.7.6-1 1.3-.7.6.2 1.1 1.2 1.1 2.1-.1.9.2 1.6.7 1.6.5 0 .9-1 .9-2.3 0-1.7.2-1.9.9-.8.5.8.7 2.1.4 3-.3 1.2-.2 1.2.7-.2.6-.9 1.5-1.5 2-1.2.5.3 1.2 0 1.6-.6.4-.8.3-.9-.4-.5s-1.2.2-1.2-.4c0-.7.6-1 1.3-.7.6.2 1.1 1.2 1.1 2.1-.1.9.2 1.6.7 1.6.5 0 .9-1 1-2.3 0-1.2.3-1.6.6-.8.5 1.1.7 1.1 1.4 0s.9-1 .9.3c0 2 1.5 2.4 2.6.6.4-.7.3-.8-.4-.4s-1.2.2-1.2-.4c0-.7.6-1 1.3-.7.6.2 1.1 1.2 1.1 2.1-.1.9.2 1.6.7 1.6.5 0 .9-1 .9-2.3 0-1.7.2-1.9.9-.8.5.8.7 2.1.4 3-.3 1.2-.2 1.2.7-.2.6-.9 1.5-1.5 2.1-1.2.5.3.7 0 .4-.7-.4-1 1.7-1.3 9.4-1.3 5.5 0 9.7.3 9.5.7-.6.9 1.8 1.6 3.3 1 .7-.2 1.1-.7.8-1.1-.2-.4.2-.8 1-.8 2 0 1.9 1.4-.1 2.5-1.4.8-1.4 1 .4 1.4 1.6.5 1.9.2 1.4-1.1-.5-1.4-.4-1.4 1.4-.1 1.5 1.1 1.6 1.1.7 0-1.9-2-1.6-2.6 1.1-2.6 1.4 0 2.2.4 2 .8-.3.5-1.1.5-1.7.1-.7-.4-.6 0 .2 1 1.5 1.8 2.6 2.3 1.6.7-.9-1.4 2.8-1.2 4.5.2 1.3 1.1 1.3 1.1.3-.2-1.9-2-1.6-2.6 1.1-2.6 1.4 0 2.2.4 2 .8-.3.5-1.1.5-1.7.1-.7-.4-.6 0 .2 1 1.3 1.7 2.6 2.4 1.8.9-.3-.4.2-1.4 1.1-2.1 1.4-1.3 1.5-1.3 1 .6-.4 1.6-.2 2 .9 1.6.8-.3 1.2-1.1 1-1.8-.3-.6.1-1.2.9-1.2s1.3.6 1 1.4c-.3.7-.1 1.3.4 1.3.6 0 1-.6 1-1.3 0-.7 1.1-1.3 2.4-1.3 1.4 0 2.3.3 2 .7-.5.9 1.7 1.7 3.3 1.1.7-.2 1.1-.7.8-1.1-.2-.4.2-.8 1-.8 2 0 1.9 1.4-.1 2.5-1.4.8-1.4 1 .4 1.4 1.6.5 1.9.2 1.4-1.1-.5-1.4-.4-1.4 1.4-.1 1.5 1.1 1.6 1.1.7 0-1.9-2-1.6-2.6 1.1-2.6 1.4 0 2.2.4 2 .8-.3.5-1.1.5-1.7.1-.7-.4-.6 0 .2 1 1.5 1.8 2.6 2.3 1.6.7-.3-.6.1-1 1-1 1 0 1.3-.5.9-1.2-.5-.7-.3-.8.5-.4.7.5 1 1.4.7 2.2-.3.8-.1 1.4.4 1.4.6 0 1-1 1.1-2.3 0-1.2.3-1.6.6-.8.5 1.1.7 1.1 1.4 0s.9-1 .9.3c0 2 1.5 2.4 2.6.6.4-.7.3-.8-.4-.4s-1.2.2-1.2-.4c0-.7.6-1 1.3-.7.6.2 1.1 1.2 1.1 2.1-.1.9.2 1.6.7 1.6.5 0 .9-1 .9-2.3 0-1.7.2-1.9.9-.8.5.8.7 2.1.4 3-.3 1.2-.2 1.2.7-.2.6-.9 1.5-1.5 2-1.2.5.3 1.2 0 1.6-.6.4-.8.3-.9-.4-.5s-1.2.3-1.2-.1c0-1.3 14-1.1 14.1.2 0 .5.2 2.1.5 3.5.3 1.9.2 2.1-.6 1-.5-.8-1-1-1-.4s.3 1.4.7 1.8c1.3 1.3 1.3 4.9.1 6.4-.7.9-.8 1.3-.2.9 1.4-.8 1.3 9.1 0 11.2-.6.9-.5 1.2.1.8 1.3-.8 1.2 13.2-.1 15.2-.6.9-.5 1.2 0 .8 1.5-.8 1.5 9.4.1 11.2-.7.8-.7 1.2-.1.8 1.4-.8 1.3 9.1 0 11.2-.6.9-.5 1.2 0 .8 1.5-.8 1.5 9.4.1 11.2-.7.8-.7 1.2-.1.8 1.4-.8 1.3 9.1 0 11.2-.6.9-.5 1.2.1.8 1.3-.8 1.2 13.2-.1 15.2-.6.9-.5 1.2 0 .8 1.5-.8 1.5 9.4.1 11.2-.7.8-.7 1.2-.1.8 1.4-.8 1.3 9.1 0 11.2-.6.9-.5 1.2 0 .8 1.5-.8 1.5 9.4.1 11.2-.7.8-.7 1.2-.1.8 1.4-.8 1.3 9.1 0 11.2-.6.9-.5 1.2.1.8 1.3-.8 1.2 13.2-.1 15.2-.6.9-.5 1.2 0 .8 1.5-.8 1.5 9.4.1 11.2-.7.8-.7 1.2-.1.8 1.4-.8 1.3 9.1 0 11.2-.6.9-.5 1.2 0 .8 1.5-.8 1.5 9.4.1 11.2-.7.8-.7 1.2-.1.8 1.4-.8 1.3 9.1 0 11.2-.6.9-.5 1.2.1.8 1.3-.8 1.2 13.2-.1 15.2-.6.9-.5 1.2 0 .8 1.5-.8 1.5 9.4.1 11.2-.7.8-.7 1.2-.1.8 1.4-.8 1.3 9.1 0 11.2-.6.9-.5 1.2 0 .8 1.5-.8 1.5 9.4.1 11.2-.7.8-.7 1.2-.1.8 1.4-.8 1.3 9.1 0 11.2-.6.9-.5 1.2.1.8 1.3-.8 1.2 13.2-.1 15.2-.6.9-.5 1.2 0 .8 1.5-.8 1.5 9.4.1 11.2-.7.8-.7 1.2-.1.8 1.4-.8 1.3 9.1 0 11.2-.6.9-.5 1.2 0 .8 1.5-.8 1.5 9.4.1 11.2-.7.8-.7 1.2-.1.8 1.4-.8 1.3 9.1 0 11.2-.6.9-.5 1.2.1.8 1.3-.8 1.2 13.2-.1 15.2-.6.9-.5 1.2 0 .8 1.5-.8 1.5 9.4.1 11.2-.7.8-.7 1.2-.1.8 1.4-.8 1.3 9.1 0 11.2-.6.9-.5 1.2 0 .8 1.5-.8 1.5 9.4.1 11.2-.7.8-.7 1.2-.1.8 1.4-.8 1.3 9.1 0 11.2-.6.9-.5 1.2.1.8.6-.4.9 5 .9 14.3 0 8.2-.3 14.7-.7 14.4-.4-.2-1.1 0-1.4.6-.4.6-.1.9.7.8.7-.2 1.3.4 1.3 1.2 0 1.3-25.4 1.5-221.7 1.7l-221.8.2.1-4.2c.1-2.3.7-4.8 1.3-5.6.6-.9.7-1.2.1-.9-1.5.9-1.7-9.2-.2-11.1.7-.8.7-1.2.1-.8-1.4.8-1.3-9.1 0-11.2.6-.9.5-1.2 0-.8-1.5.8-1.5-9.4-.1-11.2.7-.8.7-1.2.1-.8-1.4.8-1.3-9.1 0-11.2.6-1 .6-1.2-.2-.7-1.7 1-1-2.7.8-5.1 1.4-1.6 1.4-1.7-.2-.4-1.6 1.2-1.8 1.1-1.8-.3 0-.9.6-1.6 1.3-1.7.9 0 1-.2 0-.6-2.1-.8-1.6-3.6.5-2.9 1.6.6 1.6.5 0-.8-2.1-1.6-2.4-3.8-.4-3 .8.3 1.7.1 2-.4.3-.5-.2-.9-1.1-.8-1 0-1.9-.7-2.1-1.8-.3-1.3 0-1.6 1-1.1.7.5 1 .5.6 0-.4-.4-.2-1.5.5-2.4 1.1-1.4 1-1.4-.6-.2-1.5 1.2-1.7 1.1-1.7-.3 0-.9.6-1.6 1.3-1.7.9 0 1-.2 0-.6-2.1-.8-1.6-3.6.5-2.9 1.6.6 1.6.5 0-.8-2.1-1.6-2.4-3.8-.4-3 .8.3 1.7.1 2-.4.3-.5-.2-.9-1.1-.8-1 0-1.9-.7-2.1-1.8-.3-1.3 0-1.6 1-1.1 1 .6 1.1.5 0-.6-1.6-1.7-1.6-6.1.1-7.8.6-.8.7-1.1.1-.8-1.3.8-1.3-9.1 0-11.2.6-.9.5-1.2 0-.8-1.4.8-1.5-17.5-.1-19.2.8-1 .8-1.3.1-.8-1.4.8-1.3-9.1 0-11.2.6-.9.5-1.2 0-.8-1.8 1-1.5-9.5.3-12.3 1.5-2.3 1.5-2.4 0-1.1-1.5 1.2-1.7 1.1-1.7-.3 0-.9.6-1.6 1.3-1.7.9 0 1-.2 0-.6-2.1-.8-1.6-3.6.5-2.9 1.6.6 1.6.5 0-.8-2.1-1.6-2.4-3.8-.4-3 .8.3 1.7.1 2-.4.3-.5-.2-.9-1.1-.8-1 0-1.9-.7-2.1-1.8-.3-1.3 0-1.6 1-1.1.7.5 1 .5.6 0-.4-.4-.2-1.5.5-2.4 1.1-1.4 1-1.4-.5-.2-1.6 1.2-1.8 1.1-1.8-.3 0-.9.6-1.6 1.3-1.7.9 0 1-.2 0-.6-2.1-.8-1.6-3.6.5-2.9 1.6.6 1.6.5-.1-.8-2-1.6-2.3-3.8-.3-3 .8.3 1.7.1 2-.4.3-.5-.2-.9-1.2-.8-1.5.1-1.7-.9-1.8-6.9-.1-3.9.4-7.6 1-8.4.7-.9.7-1.2.1-.9-1.5.9-1.7-9.2-.2-11.1.7-.8.7-1.2.1-.8-1.4.8-1.3-9.1 0-11.2.6-.9.5-1.2 0-.8-1.5.8-1.5-9.4-.1-11.2.7-.8.7-1.2.1-.8-1.4.8-1.3-9.1 0-11.2.6-1 .6-1.2-.2-.7-1.7 1-1-2.7.8-5.1 1.4-1.6 1.4-1.7-.3-.4-1.5 1.2-1.7 1.1-1.7-.3 0-.9.6-1.6 1.3-1.7.9 0 1-.2 0-.6-2.1-.8-1.6-3.6.5-2.9 1.6.6 1.6.5 0-.8-2.1-1.6-2.4-3.8-.4-3 .8.3 1.7.1 2-.4.3-.5-.2-.9-1.1-.8-1 0-1.9-.7-2.1-1.8-.3-1.3 0-1.6 1-1.1.7.5 1 .5.6 0-.4-.4-.2-1.5.5-2.4 1.1-1.4 1-1.4-.5-.2-1.6 1.2-1.8 1.1-1.8-.3 0-.9.6-1.6 1.3-1.7.9 0 .9-.2 0-.6-2.1-.8-1.6-3.6.5-2.9 1.6.6 1.6.5 0-.8-2.1-1.6-2.4-3.8-.4-3 .8.3 1.7.1 2-.4.3-.5-.2-.9-1.1-.8-1 0-1.9-.7-2.1-1.8-.3-1.3 0-1.6 1-1.1 1 .6 1.1.5.1-.6-1.7-1.7-1.7-6.1 0-7.8.6-.8.7-1.1.1-.8-1.3.8-1.3-9.1 0-11.2.6-.9.5-1.2 0-.8-1.4.8-1.5-17.5-.1-19.2.8-1 .8-1.3.1-.8-1.4.8-1.3-9.1 0-11.2.6-.9.5-1.2 0-.8-1.8 1-1.5-9.5.3-12.3 1.5-2.3 1.5-2.4 0-1.1-1.5 1.2-1.7 1.1-1.7-.3 0-.9.6-1.6 1.3-1.7 1 0 1-.2 0-.6-2.1-.8-1.6-3.6.5-2.9 1.6.6 1.6.5 0-.8-2.1-1.6-2.4-3.8-.4-3 .8.3 1.7.1 2-.4.3-.5-.2-.9-1.1-.8-1 0-1.9-.7-2.1-1.8-.3-1.3 0-1.6 1-1.1.7.5 1 .5.6 0-.4-.4-.2-1.5.5-2.4 1.1-1.4 1-1.4-.5-.2-1.6 1.2-1.8 1.1-1.8-.3 0-.9.6-1.6 1.3-1.7 1 0 1-.2 0-.6-2.1-.8-1.6-3.6.5-2.9 1.6.6 1.6.5 0-.8-2.1-1.6-2.4-3.8-.4-3 .8.3 1.7.1 2-.4.3-.5-.2-.9-1.2-.8-1.5.1-1.7-.9-1.8-6.9-.1-3.9.4-7.6 1-8.4.7-.9.7-1.2.1-.9-1.5.9-1.7-9.2-.2-11.1.7-.8.7-1.2.1-.8-1.4.8-1.3-9.1 0-11.2.6-.9.5-1.2 0-.8-1.5.8-1.5-9.4-.1-11.2.9-1.2.9-1.3-.1-.7-.8.5-1.1.1-.9-1.4.4-2.4 2.6-4.2 4.1-3.3.5.3.6.1.2-.5-.5-.9-1.3-.9-2.6-.2-1.8 1-1.9.8-1.5-2.2.3-1.8.6-3.8.7-4.5.1-.7.5-1 1-.7.4.3.3 1.5-.3 2.7z"/><path d="M41.3 36.7c.2 1.2.7 2.6 1.2 3 .4.5.5.2.1-.5-.5-.7-.1-1.2 1.1-1.3 1.4 0 1.5-.2.3-.6-.8-.3-1.8-1.1-2.3-1.7-.4-.6-.6-.1-.4 1.1zM46.1 36.6c0 1.1.3 1.4.6.6.3-.7.2-1.6-.1-1.9-.3-.4-.6.2-.5 1.3zM48 35.9c0 1 1.9 2.5 2.5 2 .1-.2-.3-1-1.1-1.7s-1.4-.8-1.4-.3zM102.1 36.6c0 1.1.3 1.4.6.6.3-.7.2-1.6-.1-1.9-.3-.4-.6.2-.5 1.3zM106 36.3c0 .5.6.7 1.3.4.6-.2 2 0 2.9.5 1.3.6 1.6.5 1.2-.5-.5-1.4-5.4-1.8-5.4-.4zM113.6 36.5c-.9 2.6-.7 3.2.5 1.2.6-1 .9-2.1.6-2.3-.2-.3-.7.2-1.1 1.1zM115.7 36.9c-.4 1.7-.3 2.1.5 1.3.5-.5.8-1.6.6-2.3-.3-.8-.7-.3-1.1 1zM118.2 37.4c-.1 1.6.1 1.7.8.7.7-1.3 1.1-1.3 2.6 0 1.6 1.3 1.6 1.2.4-.7-1.6-2.7-3.6-2.7-3.8 0zM122.6 36.2c.3.5 1 .6 1.5.3 1.3-.9 1.1-1.2-.6-1.2-.8 0-1.2.4-.9.9zM127.6 36.7c1 .7 2.2 1.3 2.6 1.3.5 0 .3-.6-.4-1.3-.7-.8-1.9-1.4-2.6-1.4-1.1 0-1 .4.4 1.4zM151.5 36c-.3.5-.1 1 .4 1 .6 0 1.1-.5 1.1-1 0-.6-.2-1-.4-1-.3 0-.8.4-1.1 1zM154 36.3c0 .5.6.7 1.3.4.6-.2 2 0 2.9.5 1.3.6 1.6.5 1.2-.5-.5-1.4-5.4-1.8-5.4-.4zM193.5 35.9c-.3.5-.2 1.2.3 1.5.5.3.9-.1.9-.9 0-1.7-.3-1.9-1.2-.6zM196.5 36c-.4.7-.2 1.7.4 2.3.9.9 1 .7.5-.8-.7-1.7-.6-1.8.8-.7 1.2.9 1.8 1 2.3.2.4-.6.4-1.4.1-1.7-.3-.4-.6-.1-.6.7 0 1-.3 1-1.4.1-1.1-.9-1.6-.9-2.1-.1zM203 36.5c-.7.9-1.1 1.7-.9 2 .3.2 1-.5 1.7-1.5 1.4-2.4 1-2.6-.8-.5zM205.6 36.6c-.4.9-.4 1.9-.1 2.2.2.3.7-.3 1.1-1.2.4-.9.4-1.9.1-2.2-.2-.3-.7.3-1.1 1.2zM208 35.9c0 1 1.9 2.5 2.5 2 .1-.2-.3-1-1.1-1.7s-1.4-.8-1.4-.3zM239.6 35.9c-.3.5.1 1.2 1 1.5 2.2.8 2.5.4.9-1.1-.8-.7-1.6-.9-1.9-.4zM294.1 36.6c0 1.1.3 1.4.6.6.3-.7.2-1.6-.1-1.9-.3-.4-.6.2-.5 1.3zM298 36.3c0 .5.6.7 1.3.4.6-.2 2 0 2.9.5 1.3.6 1.6.5 1.2-.5-.5-1.4-5.4-1.8-5.4-.4zM305.6 36.5c-.9 2.6-.7 3.2.5 1.2.6-1 .9-2.1.6-2.3-.2-.3-.7.2-1.1 1.1zM307.7 36.9c-.4 1.7-.3 2.1.5 1.3.5-.5.8-1.6.6-2.3-.3-.8-.7-.3-1.1 1zM310.2 37.4c-.1 1.6.1 1.7.8.7.7-1.3 1.1-1.3 2.6 0 1.6 1.3 1.6 1.2.4-.7-1.6-2.7-3.6-2.7-3.8 0zM314.6 36.2c.3.5 1 .6 1.5.3 1.3-.9 1.1-1.2-.6-1.2-.8 0-1.2.4-.9.9zM319.6 36.7c1 .7 2.2 1.3 2.6 1.3.5 0 .3-.6-.4-1.3-.7-.8-1.9-1.4-2.6-1.4-1.1 0-1 .4.4 1.4zM343.5 36c-.3.5-.1 1 .4 1 .6 0 1.1-.5 1.1-1 0-.6-.2-1-.4-1-.3 0-.8.4-1.1 1zM346 36.3c0 .5.6.7 1.3.4.6-.2 2 0 2.9.5 1.3.6 1.6.5 1.2-.5-.5-1.4-5.4-1.8-5.4-.4zM385.5 35.9c-.3.5-.2 1.2.3 1.5.5.3.9-.1.9-.9 0-1.7-.3-1.9-1.2-.6zM388.5 36c-.4.7-.2 1.7.4 2.3.9.9 1 .7.5-.8-.7-1.7-.6-1.8.8-.7 1.2.9 1.8 1 2.3.2.4-.6.4-1.4.1-1.7-.3-.4-.6-.1-.6.7 0 1-.3 1-1.4.1-1.1-.9-1.6-.9-2.1-.1zM395 36.5c-.7.9-1.1 1.7-.9 2 .3.2 1-.5 1.7-1.5 1.4-2.4 1-2.6-.8-.5zM397.6 36.6c-.4.9-.4 1.9-.1 2.2.2.3.7-.3 1.1-1.2.4-.9.4-1.9.1-2.2-.2-.3-.7.3-1.1 1.2zM400 35.9c0 1 1.9 2.5 2.5 2 .1-.2-.3-1-1.1-1.7s-1.4-.8-1.4-.3zM431.6 35.9c-.3.5.1 1.2 1 1.5 2.2.8 2.5.4.9-1.1-.8-.7-1.6-.9-1.9-.4zM467.5 36.6c2.1 1.6 5.8 1.3 6.1-.5.2-.7 0-.7-.3-.1-.3.7-1 .7-2.1-.2-1.2-1-1.4-1-.8-.1.4.7.2 1.3-.3 1.3-.6 0-1.1-.4-1.1-.8 0-.5-.7-.9-1.6-.9-1.5 0-1.4.2.1 1.3zM475 35.9c0 .6.4 1.3 1 1.6.6.3.7-.1.4-.9-.7-1.8-1.4-2.1-1.4-.7zM98.6 36.8c-.3.5.1.9.9.9s1.2-.4.9-.9c-.3-.4-.7-.8-.9-.8-.2 0-.6.4-.9.8zM290.6 36.8c-.3.5.1.9.9.9s1.2-.4.9-.9c-.3-.4-.7-.8-.9-.8-.2 0-.6.4-.9.8zM125 38c0 .5.5 1 1.1 1 .5 0 .7-.5.4-1-.3-.6-.8-1-1.1-1-.2 0-.4.4-.4 1zM317 38c0 .5.5 1 1.1 1 .5 0 .7-.5.4-1-.3-.6-.8-1-1.1-1-.2 0-.4.4-.4 1zM465 38c0 .5.5 1 1.1 1 .5 0 .7-.5.4-1-.3-.6-.8-1-1.1-1-.2 0-.4.4-.4 1zM474.1 39.6c0 1.1.3 1.4.6.6.3-.7.2-1.6-.1-1.9-.3-.4-.6.2-.5 1.3zM53 40.1c0 .5.5.7 1 .4.6-.3 1-.8 1-1.1 0-.2-.4-.4-1-.4-.5 0-1 .5-1 1.1zM133 40.1c0 .5.5.7 1 .4.6-.3 1-.8 1-1.1 0-.2-.4-.4-1-.4-.5 0-1 .5-1 1.1zM213 40.1c0 .5.5.7 1 .4.6-.3 1-.8 1-1.1 0-.2-.4-.4-1-.4-.5 0-1 .5-1 1.1zM245 40.1c0 .5.5.7 1 .4.6-.3 1-.8 1-1.1 0-.2-.4-.4-1-.4-.5 0-1 .5-1 1.1zM325 40.1c0 .5.5.7 1 .4.6-.3 1-.8 1-1.1 0-.2-.4-.4-1-.4-.5 0-1 .5-1 1.1zM405 40.1c0 .5.5.7 1 .4.6-.3 1-.8 1-1.1 0-.2-.4-.4-1-.4-.5 0-1 .5-1 1.1zM437 40.1c0 .5.5.7 1 .4.6-.3 1-.8 1-1.1 0-.2-.4-.4-1-.4-.5 0-1 .5-1 1.1zM35.6 77.3c.3 1 .9 1.5 1.2 1.2.3-.3 0-1.1-.7-1.8-1-.9-1.1-.8-.5.6zM475 81.9c0 .6.4 1.3 1 1.6.6.3.7-.1.4-.9-.7-1.8-1.4-2.1-1.4-.7zM51.1 94.6c.5.6.6 1.4.2 1.7-.3.4-.2.7.3.7.6 0 1.8 2 2.8 4.4 1 2.5 2.5 4.7 3.2 5 1.7.7 1.8 4.3.2 4.8-.9.3-.9.6 0 1.2.7.4 1.2.2 1.2-.5 0-.8.4-.8 1.5.1 2 1.7 1.9 3.1-.2 2.3-1.5-.5-1.4-.3.2 1 1.1.8 2.3 1.3 2.7 1.1.4-.3.5.3.1 1.2-.5 1.3-.3 1.5.8.9 1.2-.8 1.2-.6 0 .9-.8.9-1 1.6-.5 1.5 2-.3 3.5.1 2.9 1-.3.5.1 1.5.8 2.3 3.1 3.2 7.1 11.8 4.9 10.4-.5-.3-.9.1-.9.8 0 .7.6 1.3 1.3 1.3.7 0 1.1-.4.8-.9-.3-.4 0-.8.5-.8.6 0 1.1.9 1.1 2.1 0 1.2.4 1.7 1.1 1.3.8-.4.8 0 0 1.5-1 1.7-.9 2 .4 1.5.9-.4 1.7.1 2.2 1.2.3 1.1 1.7 3.6 3.1 5.8 1.3 2.1 1.9 3.5 1.3 3.2-.7-.4-.8-.1-.5.8.3.9.9 1.4 1.4 1.1.9-.6 3.2 4.4 2.5 5.5-.3.5-.1 1.1.5 1.5.6.4.7 1.1.4 1.7-.4.7-.2.8.5.4.9-.6.9-1.2-.1-2.4-1.2-1.5-1.1-1.6.4-.4.9.8 1.4 2 1.1 2.8-.3.9 0 1.4.8 1.2.9-.2 1.3.4 1.1 1.6-.2 1.2.1 1.6.9 1.1.9-.6 1 0 .6 2.1-.3 1.6-.4 2.3-.1 1.6.3-.6 1-1 1.5-.6.5.3.5 1.2-.1 2.3-1.1 2.1-.4 3.1 2.2 3.1 1.1 0 1.6.5 1.3 1-.4.6-1.1.7-1.7.4-.6-.4-.8-.2-.4.4.3.6 1.6.9 2.8.7 1.1-.3 1.8-.2 1.5.2-.4.3-.1 1.5.5 2.7.7 1.1 1.1 2.4 1 2.8-.1.5.3.8.8.8.6 0 1 .4 1 1 0 .5-.8.7-1.7.4-1.5-.5-1.5-.4-.3.4.8.6 1.7.9 2.1.6 1-.6 5.1 6.7 4.5 8.2-.3.7.2 1.8.9 2.4.8.7 1.3 1.6 1 2-.3.4.3 1.4 1.3 2.1 1.5 1.3 1.6 1.2.3-.4-.8-1-.9-1.7-.3-1.7 1 0 1.9 1.9 2.3 4.5.1.5 1 1.6 2 2.3 1.1.7 1.9 2 1.9 2.8 0 .8.9 2.4 2 3.6 1.6 1.7 1.7 2.4.7 3.7-.9 1.2-.9 1.3.1.7.6-.4 1.2-.3 1.2.3 0 .5-.6 1.2-1.2 1.5-.9.4-.8.5.2.5 3.8-.3 4.3 0 3 1.7-1.1 1.3-1 1.6.8 2 1.4.4 1.9 1.1 1.5 2.2-.4 1-.3 1.4.2 1 .8-.8 3.4 2 3.5 3.7 0 .5-.5.3-1-.5-.7-1.1-1-1.2-1-.2 0 .8.9 1.6 2 1.9 1.5.4 1.9 1.1 1.5 2.4-.5 1.3-.2 1.9.7 1.7.8-.2 1.3.6 1.2 1.8 0 1.6.4 2 1.4 1.6.9-.3 1.3-.1.9.5s0 1.6.8 2.3c.8.7 1.5 2 1.5 2.9 0 1.2-.2 1.3-.8.3-.6-.8-.9-.1-.9 2 0 2.9.1 3 1 1 .6-1.2 1.3-2.2 1.7-2.2.9 0 3 4.6 3 6.5 0 .8.5 1.5 1.1 1.5.8 0 .7.5-.1 1.5-1.1 1.3-1 1.4.4.9 2.1-.8 2.1.5-.1 2.3-1.6 1.3-1.6 1.3.4.4 2.7-1.4 3.6-1.4 2.8-.1-.3.5-.2 1 .3 1 1.1 0 3.6 5.1 3.3 6.9-.1.7.2 1.1.6.8.5-.3 1.7.7 2.7 2.3 1.3 2.2 1.4 2.8.3 2.4-.8-.3-1.4.1-1.4.9 0 .9.7 1.2 1.8 1 1.2-.4 2.1.5 3 3.1.7 1.9 1.6 3.3 2.1 3 .4-.3.8.2.8 1.1 0 .9-.4 1.4-.9 1-.5-.3-1.2-.1-1.5.4-.3.4.4.8 1.6.7 1.2 0 2.3.5 2.5 1.2.3.8-.2 1-1.4.6-1.4-.5-1.5-.4-.3.4.8.6 1.7.9 2.2.6.4-.2 1.2.6 1.9 1.8.9 1.9.9 2.1-.2 1-.7-.6-1.8-1.2-2.4-1.2-.5 0 .5 1 2.3 2.1 2.6 1.7 3 2.4 2.1 3.5-1 1.2-.8 1.3.6.7 1.4-.5 1.7-.3 1.2.9-.3 1 .8 3 2.9 5.3 1.9 2.1 3.2 4.1 2.9 4.4-.4.3-1-.1-1.5-.9-.7-1.1-1-1.1-1-.2 0 .7 1.1 1.8 2.5 2.4 1.8.8 2.2 1.5 1.5 2.3-.8.9-.4 1.4 1.1 1.8 2 .5 2.1.8.8 2.3-.9 1.2-.9 1.5-.2 1 .8-.4 1.7.2 2.5 1.8.6 1.4 1.5 2.6 1.9 2.6.4 0 1 .7 1.3 1.6.3.8.2 1.2-.3.9-.5-.3-1.3 0-1.7.6-.4.8-.3.9.4.5s1.2-.2 1.2.4c0 .6.4.8 1 .5 1-.6 1.4.7 1.1 3.2-.1.8.5 1 1.5.6 1.2-.4 1.5-.3 1 .5-.4.6.2 2 1.4 3.2 1.1 1.1 1.6 2 1 2-.5 0-1 .5-1 1.1 0 .5.4.7 1 .4.5-.3 1 .1 1 1s.4 1.3 1 1c1-.6 1.4.7 1.1 3.3-.1.6.4 1.2 1.1 1.2.7 0 1.8 1.1 2.5 2.5.6 1.4.7 2.5.3 2.5-.5 0-1.1-.6-1.4-1.3-.2-.6-.4-.2-.2 1 .1 1.2.6 2.6 1.1 3 .4.5.5.2.1-.5s-.1-1.2.7-1.2c1.4 0 3.2 2.6 2.9 4.1-.1.4.9 1.8 2.2 3.2 1.5 1.7 2 3 1.5 3.9-1.5 2.2-1 3.3.6 1.2 1.4-1.8 1.4-1.8 1 .4-.2 1.2 0 2 .4 1.7.5-.2 1.4.2 2.1 1 .7.8.9 1.5.5 1.5s-.1.7.6 1.6c.7.9 1.4 2.3 1.6 3.2.1.9.7 1.8 1.3 2 .6.2 1.7 2 2.5 3.9 1.2 2.8 1.2 3.9.3 5-.6.8-.7 1.3-.2 1.2 2.1-.4 2.4.2 1.4 2.3-1.1 2.2-1 2.2.4.4 1.2-1.4 1.3-2.3.5-3.3-.8-.9-.8-1.3-.1-1.3 1.3 0 2.6 3.6 1.7 5-.4.6.1.7 1.2.3 1.6-.6 1.7-.5.3 1.2s-1.3 1.8.3 1.2c1.1-.4 1.6-.3 1.2.3-.3.6-.1 1 .6 1 .6 0 .9.8.6 2-.3 1.1 0 2.3.5 2.7.7.3.8.1.4-.5-.4-.7-.4-1.2.1-1.2 1.2 0 3.2 4.9 2.3 5.5-.9.6-.7 3.1.3 4.1.3.4.5-.3.2-1.5-.6-3.2 1-2.5 3.1 1.4 1.5 2.9 1.6 3.7.6 4.4-1.1.7-1 .9.3 1.4.9.4 1.3.3 1-.3-.3-.6-.1-1 .4-1 1.5 0 1.4 2.7-.1 3.4-.7.3-.2.3 1.2-.1 2.3-.5 2.4-.5 1 1.2-.8 1.1-1 1.6-.3 1.2 1.8-1.1 6.6 6.3 5.2 7.9-.8 1-.6 1.2 1.1.9 1.3-.2 2-.2 1.7.2-.4.3.1 1.9.9 3.5s1.2 3.4.8 4.1c-.4.7-.4.9.1.5 1.4-1.3 6.2 5.4 5.6 8.1-.1.7.2 1 .8.6 1.5-.9 1.4 1.8-.1 3.3-.9.9-.9 1.2 0 1.2.7 0 1.2-.5 1.2-1 0-2.1 1.6-.8 3.7 3 1.2 2.2 1.6 4 1.1 4-.6 0-.8.3-.5.6.4.4 1.2.2 1.9-.3.7-.6 2.1-.9 3.1-.8.9.2 1.5-.1 1.1-.6-.3-.5-1-.7-1.5-.4-1.4.9-1.1-.3.7-3 1.2-1.8 2.3-2.4 4.5-2.1 1.6.2 2.6-.1 2.3-.6-.3-.5-1.2-.7-1.9-.4-2.4.9-2.6-.8-.3-2.2 1.3-.7 1.5-1.1.6-.8-1 .3-1.8.1-1.8-.4 0-.6.7-1 1.6-1 .8 0 1.2-.5.9-1-.6-.9.8-1.4 2.8-1.1.5.1.6-.3.2-.9-.3-.6-1.1-.8-1.6-.5-.5.4-.4-.5.3-2 .6-1.4 1.7-2.4 2.3-2.1.6.2 1.1-.5 1.1-1.8-.1-1.1.4-2 1.1-1.9.8.2 1-.4.6-1.4-.5-1.2-.2-1.5 1-1 1.5.6 1.6.4.6-1.6-1.1-1.9-1-2 .3-.9 1.3 1 1.5.9 1-1.3-.3-1.9 0-2.5 1.2-2.5.9 0 1.6-.6 1.5-1.3-.4-3.3 0-4 1.8-2.6 1.5 1.3 1.5 1.2.6-.6-.8-1.5-.8-2.5.2-3.8 1.3-1.8 3.1-2.4 2-.7-.3.5-.1 1 .4 1 1.5 0 1.4-1.3-.1-2.9-1-1.1-1-1.3 0-.7.6.4 1.2.2 1.2-.4 0-.6.5-.8 1.3-.4.9.6.9.4-.1-.8-.9-1.1-1-1.8-.2-2.3.6-.3.8-1 .6-1.4-.3-.4.8-1.8 2.5-3.1 1.6-1.4 2.9-2.9 2.9-3.5 0-.5-.5-.3-1 .5s-1 1-1 .5c0-2.2 3.2-5.6 4.7-5 1.3.4 1.4.3.3-1-.9-1.1-.9-1.5-.1-1.5.7 0 .9-.4.6-1-.9-1.4.8-1.2 2.5.2.8.7.6.3-.4-1-2.1-2.4-1.6-2.8 1.7-1.1 2 .9 2 .9.5-.4-1-.8-1.8-2.2-1.8-3.3 0-1.7.1-1.7 1.6.2.8 1 1.2 1.3.9.6-.8-1.6 2.4-5.4 3.8-4.5.6.4.7.1.3-.6-.6-.9-1.3-.8-2.7.5-1 .9-1.9 1.2-1.9.7 0-.6.6-1.6 1.4-2.2.8-.6 1.9-2.5 2.6-4.1.7-1.7 1.7-2.7 2.3-2.3.6.4.8 0 .4-1-.4-1.2-.1-1.7 1.1-1.7 1.5 0 1.5-.2.2-1-1.4-.9-1.3-1.1.9-1.4.5 0 1.3-.5 1.8-1s.3-.6-.4-.2c-.7.4-1.3.2-1.3-.3 0-.6.4-1.1 1-1.1.5 0 .9-.3.9-.8-.3-1.9.2-3.2 1.2-3.2.8 0 .8.4 0 1.4-.9 1.1-.9 1.6 0 2.2.7.4.9.3.5-.4-.3-.6-.2-1.3.3-1.6.5-.3.7-1.4.5-2.4-.2-.9.5-2.8 1.7-4.2 1.1-1.4 1.8-1.9 1.4-1.3-.4.9-.1 1.1 1 .7 1.4-.6 1.4-.7-.1-1.8-1.4-1.1-1.4-1.3 0-2.5.9-.8 1.6-2 1.6-2.8 0-.9.6-1.3 1.5-1 .8.4 1.7.1 2.1-.5.4-.7.3-.8-.4-.4s-1.2.2-1.2-.3c0-.6.5-1.1 1.1-1.1.5 0 .7-.4.4-1-.3-.5-.1-1 .5-1s.9-.4.6-.9c-.7-1.1 2.2-2.3 3.6-1.4.7.4.8.1.4-.6-.5-.7-1.4-1-2.2-.7-.8.3-1.1 0-.7-1 .3-.8 1.1-1.3 1.9-1 .8.3 1.1-.2.9-1.5-.2-1 .1-1.9.6-1.9.6 0 .8-.4.5-.9-.6-.9 2.2-2.6 3.7-2.3.4.1.7-.3.7-.8 0-1.4-1.3-1.3-2.9.2-1.1 1.1-1.1.9 0-.9.7-1.2 1.7-1.9 2.2-1.6.4.3.7-.1.6-.8-.4-2.6 1.2-4.8 2.9-4.1 1.5.5 1.6.4.2-1.3-1.1-1.4-1.2-1.7-.1-1.1.9.6 1.2.5.9-.5-.3-.8.1-2 .9-2.7.7-.8 1-1.8.7-2.4-.4-.7-.2-.8.4-.4.6.3.9 1.6.7 2.8-.3 1.1-.1 1.7.3 1.4.4-.4.7-1.7.8-2.9.2-5.3.4-5.9 1.8-5.4.9.4 1.2-.2 1-1.9-.2-2.5 2.6-5 4.1-3.6.5.4.5.1.1-.6s-1.2-.9-1.8-.6c-.7.5-.8.2-.4-.5.5-.7 1.4-1 2.2-.7.7.3 1.6 0 2-.6.4-.6.3-.8-.4-.4-2.2 1.4-2.3-1.7-.1-4.1 1.3-1.3 2.3-2.8 2.3-3.1-.3-1.5.9-3.2 2.1-3.2.8 0 1.7-.4 2-1 .4-.6-.1-.7-1-.3-1.5.5-1.5.3-.3-1.6 1.2-2 1.4-2 2.6-.4 1.4 1.9 1.6.5.2-1.7-.6-1-.4-2 .5-3 .7-.8 1.4-1.7 1.4-2 0-1.7 1.5-4 2.7-4 .8 0 1.1-.6.7-1.7-.5-1.2-.3-1.4.7-.8 1 .6 1.2.4.7-.9-.4-1-.3-1.5.3-1.1.6.3 1-.2 1-1.2s.5-2.5 1-3.3c.9-1.3 1.1-1.3 2 0 .8 1.2.9.9.6-1-.3-2.6 2.7-9.3 5.5-12 .9-.8 1.4-2.1 1.2-2.8-.3-.7.4-1.2 1.9-1.2 1.8 0 2-.2.8-1s-1.2-1.1.3-2.8c.9-1 1.7-2.4 1.7-3 0-.7.5-1.2 1.1-1.2.5 0 .7-.6.3-1.3-.6-.9-.5-.9.8.1s1.5.9 1.1-1.2c-.4-1.8 0-2.6 1.9-3.2 1.2-.4 2.6-.8 3-.9.3 0 1-.3 1.4-.7.8-.9-3.1-.2-4.9.8-.6.4-.4-.2.6-1.3.9-1.1 1.7-2.6 1.7-3.4 0-1.2.2-1.1 1.1.1.8 1.2 1 1.2.8-.5-.3-3.2 1.1-5.4 2.9-4.7 1.5.5 1.6.4.2-1.3-1.2-1.5-1.2-1.7-.1-1 1.1.6 1.3.4.8-.8-.3-.9 0-1.8.9-2.1.8-.3 1.4 0 1.4.6s.3.8.6.5c.4-.4.1-1.3-.6-2.2-.8-1-.9-1.5-.1-1.5.6 0 1-.3 1-.8-.3-1.9.2-3.2 1.2-3.2.8 0 .7.6-.2 1.7-1.3 1.6-1.2 1.7.4.4.9-.7 1.7-1.9 1.6-2.5-.4-3.4.2-4.4 2.4-3.9 2.2.5 2.2.5.2-1-1.9-1.4-1.9-1.6-.3-2.2 1-.4 1.5-1.2 1.1-1.8-.4-.6 0-.8 1-.4 1.2.4 1.4.1 1.1-1.8-.3-2-.1-2.2 1.8-1.8 1.3.3 1.9.1 1.3-.4-1.5-1.2-1.3-3.5.4-4.1.8-.3 1.1 0 .8.5-.3.5 0 1 .8 1 1.3 0 1.2-.4-.2-1.9-1.8-2-1.2-2.3 2-.7 2 .9 2 .9.5-.4-1-.8-1.8-2.2-1.8-3.3 0-1.7.1-1.7 1.4.1 1.3 1.8 1.3 1.7 1-1-.3-3 1.2-5.9 2.6-5 .4.3.8-.1.7-.8-.1-3 .4-4.7 1.4-4.7.5 0 .7.5.3 1.2-.4.7-.3.8.4.4.6-.4.9-1.3.5-2.2-.3-.8.2-2.3 1.1-3.3.9-1 1.3-2.1.9-2.4-.3-.4 0-.7.9-.7.8 0 1.5-.7 1.6-1.5.1-.8.3-2.2.4-2.9.1-1.2.6-1.3 2.2-.4 1.9 1 2 .9.8-.5-1.6-1.9-.6-4.1 1.5-3.3.8.3 1.1.2.8-.3-.3-.5-.1-1.2.4-1.5.5-.3.7-1.5.4-2.6-.4-1.4 0-2 1.1-2 .9 0 1.6-.5 1.6-1.1 0-.5-.5-.7-1.1-.3-.6.3-.3-.5.6-2 1-1.4 2.2-2.6 2.7-2.6s.6-.5.3-1c-.3-.6-.1-1 .5-1s.9-.4.6-.9c-.7-1.1 2.2-2.3 3.6-1.4.7.4.8.1.4-.6-.5-.7-1.4-1-2.2-.7-.8.3-1.1 0-.7-1 .3-.8 1.1-1.3 1.9-1 .8.3 1.1-.2.9-1.5-.2-1 .1-1.9.6-1.9.6 0 .8-.4.4-.9-.6-1 2.9-3.4 3.7-2.6.3.3.5-.2.5-1 0-1.1-.4-1.2-1.3-.4-1 .8-1 .5-.1-1.5.7-1.4 1.8-2.6 2.5-2.6s1-.5.7-1c-.3-.6-.2-1 .4-1 .6 0 .7-.8.4-1.8-.6-1.5-.5-1.6 1.2-.2 1.7 1.4 1.7 1.4.8-.5-1.6-2.9.9-6.4 3.2-4.5 1.3 1.1 1.4 1 .9-.4-.3-.9-1-1.6-1.6-1.6-.5 0-.6-.5-.3-1 .4-.6 1.1-.7 1.7-.4.8.5.9.1.5-1-.6-1.4-.3-1.6 1.6-1.1 2 .5 2 .5.4-.5-1.7-1.1-1.7-1.3-.2-3 .9-1 1.8-2.4 1.9-3.2.1-.7.8-2.3 1.5-3.6 1.1-2 1.5-2.1 2.9-1 1.5 1.2 1.6 1.1.3-.5-1.1-1.4-1.1-2-.1-3.2 1-1.3.9-1.5-1.1-1.6-1.3-.1-93.8-.2-205.6-.3-147.7-.1-202.9.2-202.2 1zM427 154.4c0 .3-.4.8-1 1.1-.5.3-1 .1-1-.4 0-.6.5-1.1 1-1.1.6 0 1 .2 1 .4zM96.5 173c.3.5-.1 1-1 1s-1.3-.5-1-1c.3-.6.8-1 1-1 .2 0 .7.4 1 1zm13.5 23c0 .5-.2 1-.4 1-.3 0-.8-.5-1.1-1-.3-.6-.1-1 .4-1 .6 0 1.1.4 1.1 1z"/><path d="M456.5 102c-.3.6.1.7.9.4 1.8-.7 2.1-1.4.7-1.4-.6 0-1.3.4-1.6 1zM475 105.9c0 .6.4 1.3 1 1.6.6.3.7-.1.4-.9-.7-1.8-1.4-2.1-1.4-.7zM55 107.4c0 .2.7.6 1.5 1 .8.3 1.5.1 1.5-.4 0-.6-.7-1-1.5-1s-1.5.2-1.5.4zM454.6 107.8c-.3.5.1.9.9.9s1.5-.4 1.5-.9c0-.4-.4-.8-.9-.8-.6 0-1.2.4-1.5.8zM59.6 117.3c.3 1 .9 1.5 1.2 1.2.3-.3 0-1.1-.7-1.8-1-.9-1.1-.8-.5.6zM447 118.4c0 .2.8 1 1.8 1.7 1.5 1.3 1.6 1.2.3-.4s-2.1-2.1-2.1-1.3zM63.3 123.3c0 .8.6 1.4 1.3 1.4.7 0 1-.6.7-1.4-.3-.7-.8-1.3-1.2-1.3-.4 0-.8.6-.8 1.3zM68 128c.6 1.1 1.3 2 1.6 2 .2 0 0-.9-.6-2s-1.3-2-1.6-2c-.2 0 0 .9.6 2zM444.2 127.6c1 1 2 1.6 2.2 1.3.3-.3-.5-1.1-1.7-1.8-2.1-1.3-2.1-1.2-.5.5zM68.6 131.8c-.2.4.4.8 1.4.8 1 0 1.6-.4 1.4-.8-.3-.4-.9-.8-1.4-.8-.5 0-1.1.4-1.4.8zM77.3 144.2c.1 1.6.5 2.8.9 2.8 1 0 .9-.9-.2-3.5-.8-1.7-.8-1.6-.7.7zM475 145.9c0 .6.4 1.3 1 1.6.6.3.7-.1.4-.9-.7-1.8-1.4-2.1-1.4-.7zM79.4 149.4c.1.8.5 1.8.8 2.2.4.3.5-.1.4-1-.1-.8-.5-1.8-.8-2.2-.4-.3-.5.1-.4 1zM430 148.4c0 .2.7.9 1.5 1.6.9.7 1.5.8 1.5.2 0-.5-.7-1.2-1.5-1.6-.8-.3-1.5-.4-1.5-.2zM82 155.4c0 .2.8 1 1.8 1.7 1.5 1.3 1.6 1.2.3-.4s-2.1-2.1-2.1-1.3zM35.6 157.3c.3 1 .9 1.5 1.2 1.2.3-.3 0-1.1-.7-1.8-1-.9-1.1-.8-.5.6zM87.5 166c-.3.5-.1 1 .4 1 .6 0 1.1-.5 1.1-1 0-.6-.2-1-.4-1-.3 0-.8.4-1.1 1zM419.6 168.5c-1.1.8-1.5 1.5-.9 1.5s1.6-.7 2.3-1.5c1.6-1.9 1.1-1.9-1.4 0zM89.3 169.5c0 .8.4 1.2.9.9.5-.3.6-1 .3-1.5-.9-1.3-1.2-1.1-1.2.6zM475 169.9c0 .6.4 1.3 1 1.6.6.3.7-.1.4-.9-.7-1.8-1.4-2.1-1.4-.7zM97 180c0 .5.5 1 1.1 1 .5 0 .7-.5.4-1-.3-.6-.8-1-1.1-1-.2 0-.4.4-.4 1zM35.6 189.3c.3 1 .9 1.5 1.2 1.2.3-.3 0-1.1-.7-1.8-1-.9-1.1-.8-.5.6zM105 193.5c-1.1 1.3-1 1.4.4.9.9-.3 1.6-1 1.6-1.5 0-1.3-.6-1.1-2 .6zM475 209.9c0 .6.4 1.3 1 1.6.6.3.7-.1.4-.9-.7-1.8-1.4-2.1-1.4-.7zM117.3 213.5c0 .8.4 1.5.9 1.5.4 0 .8-.4.8-.9 0-.6-.4-1.2-.8-1.5-.5-.3-.9.1-.9.9zM387.5 220.9c-.3.5-.2 1.2.3 1.5.5.3.9-.1.9-.9 0-1.7-.3-1.9-1.2-.6zM382.8 231.7c.7.3 1.6.2 1.9-.1.4-.3-.2-.6-1.3-.5-1.1 0-1.4.3-.6.6zM475 233.9c0 .6.4 1.3 1 1.6.6.3.7-.1.4-.9-.7-1.8-1.4-2.1-1.4-.7zM376.5 240.1c-.3.4.2.6 1 .5 2.1-.3 2.8-1.3 1-1.3-.9 0-1.8.4-2 .8zM35.6 245.3c.3 1 .9 1.5 1.2 1.2.3-.3 0-1.1-.7-1.8-1-.9-1.1-.8-.5.6zM373 247.9c0 .6.4 1.2.8 1.5.5.3.9-.1.9-.9s-.4-1.5-.9-1.5c-.4 0-.8.4-.8.9zM370.7 250.4c-.4 1-.3 1.5.3 1.1.6-.3 1-.1 1 .6s.3 1 .6.6c.3-.3.2-1.3-.4-2.2-.8-1.6-.9-1.6-1.5-.1zM369.5 254c.3.5.8 1 1.1 1 .2 0 .4-.5.4-1 0-.6-.5-1-1.1-1-.5 0-.7.4-.4 1zM143.7 260.1c.7.7 1.5 1 1.8.7.3-.3-.2-.9-1.2-1.2-1.4-.6-1.5-.5-.6.5zM146.8 263.2c.9.9.9 1.5-.1 2.7-1.1 1.4-1 1.4.6.2 1.3-1 1.5-1.7.6-2.7-.6-.8-1.4-1.4-1.7-1.4-.3 0-.1.5.6 1.2zM363.6 265.8c-.3.5.1.9.9.9s1.2-.4.9-.9c-.3-.4-.7-.8-.9-.8-.2 0-.6.4-.9.8zM35.6 269.3c.3 1 .9 1.5 1.2 1.2.3-.3 0-1.1-.7-1.8-1-.9-1.1-.8-.5.6zM358.3 271.5c-.3.9-.3 1.8-.1 2.1.3.3.8-.4 1.1-1.6.6-2.3-.1-2.7-1-.5zM475 273.9c0 .6.4 1.3 1 1.6.6.3.7-.1.4-.9-.7-1.8-1.4-2.1-1.4-.7zM152.6 275.8c-.3.5.1.9.9.9s1.2-.4.9-.9c-.3-.4-.7-.8-.9-.8-.2 0-.6.4-.9.8zM355.6 275.8c-.3.5.1.9.9.9s1.5-.4 1.5-.9c0-.4-.4-.8-.9-.8-.6 0-1.2.4-1.5.8zM349.5 285.9c-.3.5 0 1.3.6 1.7.7.4.9.3.5-.4-.3-.5 0-1.3.6-1.5.9-.4 1-.6.1-.6-.6-.1-1.4.3-1.8.8zM346.7 290.9c-1 1.4-1 1.4.4.4.9-.7 1.8-1 2.1-.7.3.3.8.1 1.2-.4.9-1.6-2.4-.9-3.7.7zM475 297.9c0 .6.4 1.3 1 1.6.6.3.7-.1.4-.9-.7-1.8-1.4-2.1-1.4-.7zM166.8 300.2c.5.5 1.6.8 2.3.6.8-.3.3-.7-1-1.1-1.7-.4-2.1-.3-1.3.5zM343.5 300.1c-.4.6-.5 1.2-.2 1.5.2.3.7-.2 1-1.1.7-1.7.1-2-.8-.4zM339.6 306.2c.3.5 1 .6 1.5.3 1.3-.9 1.1-1.2-.6-1.2-.8 0-1.2.4-.9.9zM331.5 316.9c-.3.5-.2 1.2.3 1.5.5.3.9-.1.9-.9 0-1.7-.3-1.9-1.2-.6zM177 318c0 .5.5 1 1.1 1 .5 0 .7-.5.4-1-.3-.6-.8-1-1.1-1-.2 0-.4.4-.4 1zM183.5 329c2.1 2.4 2.6 2.5 1.9.6-.3-.8-1.3-1.7-2.2-2.1-1.3-.5-1.3-.2.3 1.5zM188.9 337.7c-1.3 1.6-1.2 1.7.4.4.9-.7 1.7-1.5 1.7-1.7 0-.8-.8-.3-2.1 1.3zM475 337.9c0 .6.4 1.3 1 1.6.6.3.7-.1.4-.9-.7-1.8-1.4-2.1-1.4-.7zM317.3 342.6c-.3.8-.3 1.8.1 2.1.3.4.6-.1.6-1 0-1.1.7-1.5 2.1-1.2 1.2.3 1.9.1 1.5-.2-1.3-1.3-3.7-1.1-4.3.3zM195.5 348c-.3.5-.1 1 .4 1 .6 0 1.1-.5 1.1-1 0-.6-.2-1-.4-1-.3 0-.8.4-1.1 1zM35.6 349.3c.3 1 .9 1.5 1.2 1.2.3-.3 0-1.1-.7-1.8-1-.9-1.1-.8-.5.6zM313 349.4c0 .2.7.7 1.6 1 .8.3 1.2.2.9-.4-.6-1-2.5-1.4-2.5-.6zM202.6 362.2c.3.4 1.1.5 1.9.1 2.1-.7 1.9-1.2-.4-1-1.1 0-1.8.5-1.5.9zM475 361.9c0 .6.4 1.3 1 1.6.6.3.7-.1.4-.9-.7-1.8-1.4-2.1-1.4-.7zM205.4 364.7c.2 1 .6 1.7 1 1.6 1.5-.3 1.6-1.1.2-2.2-1.2-1-1.4-.9-1.2.6zM302.9 367.7c-1.3 1.6-1.2 1.7.4.4 1.6-1.3 2.1-2.1 1.3-2.1-.2 0-1 .8-1.7 1.7zM35.6 381.3c.3 1 .9 1.5 1.2 1.2.3-.3 0-1.1-.7-1.8-1-.9-1.1-.8-.5.6zM290.5 386.9c-.9 1.5 1.5 2.5 2.8 1.2.9-.9.7-1-.7-.5-1.3.5-1.7.4-1.2-.4.4-.7.5-1.2.2-1.2s-.7.4-1.1.9zM291.3 391.5c0 .8.4 1.2.9.9.5-.3.6-1 .3-1.5-.9-1.3-1.2-1.1-1.2.6zM285.6 396.7c-.4.9-.3 2 .1 2.4.4.4.9-.3.9-1.7.2-2.8-.1-3.1-1-.7zM475 401.9c0 .6.4 1.3 1 1.6.6.3.7-.1.4-.9-.7-1.8-1.4-2.1-1.4-.7zM235 414c.6 1.1 1.3 2 1.6 2 .2 0 0-.9-.6-2s-1.3-2-1.6-2c-.2 0 0 .9.6 2zM475 425.9c0 .6.4 1.3 1 1.6.6.3.7-.1.4-.9-.7-1.8-1.4-2.1-1.4-.7zM239.6 427.8c-.3.5.1.9.9.9s1.2-.4.9-.9c-.3-.4-.7-.8-.9-.8-.2 0-.6.4-.9.8zM267 427.4c0 .2.7.7 1.6 1 .8.3 1.2.2.9-.4-.6-1-2.5-1.4-2.5-.6zM244.9 433.7c-1.3 1.6-1.2 1.7.4.4.9-.7 1.7-1.5 1.7-1.7 0-.8-.8-.3-2.1 1.3zM35.6 437.3c.3 1 .9 1.5 1.2 1.2.3-.3 0-1.1-.7-1.8-1-.9-1.1-.8-.5.6zM259.5 442c.3.5.8 1 1.1 1 .2 0 .4-.5.4-1 0-.6-.5-1-1.1-1-.5 0-.7.4-.4 1zM249.9 444.7c-1.3 1.6-1.2 1.7.4.4 1.6-1.3 2.1-2.1 1.3-2.1-.2 0-1 .8-1.7 1.7zM35.6 461.3c.3 1 .9 1.5 1.2 1.2.3-.3 0-1.1-.7-1.8-1-.9-1.1-.8-.5.6zM35 475.1c0 .5.5.7 1 .4.6-.3 1-.8 1-1.1 0-.2-.4-.4-1-.4-.5 0-1 .5-1 1.1zM7.5 28.9c-.3.5-.2 1.2.3 1.5.5.3.9-.1.9-.9 0-1.7-.3-1.9-1.2-.6zM503 30c0 .5.5 1 1.1 1 .5 0 .7-.5.4-1-.3-.6-.8-1-1.1-1-.2 0-.4.4-.4 1zM503 46c0 .5.5 1 1.1 1 .5 0 .7-.5.4-1-.3-.6-.8-1-1.1-1-.2 0-.4.4-.4 1zM7.5 52.9c-.3.5-.2 1.2.3 1.5.5.3.9-.1.9-.9 0-1.7-.3-1.9-1.2-.6zM503 62c0 .5.5 1 1.1 1 .5 0 .7-.5.4-1-.3-.6-.8-1-1.1-1-.2 0-.4.4-.4 1zM7.5 76.9c-.3.5-.2 1.2.3 1.5.5.3.9-.1.9-.9 0-1.7-.3-1.9-1.2-.6zM503 78c0 .5.5 1 1.1 1 .5 0 .7-.5.4-1-.3-.6-.8-1-1.1-1-.2 0-.4.4-.4 1zM503 94c0 .5.5 1 1.1 1 .5 0 .7-.5.4-1-.3-.6-.8-1-1.1-1-.2 0-.4.4-.4 1zM7.5 100.9c-.3.5-.2 1.2.3 1.5.5.3.9-.1.9-.9 0-1.7-.3-1.9-1.2-.6zM503 110c0 .5.5 1 1.1 1 .5 0 .7-.5.4-1-.3-.6-.8-1-1.1-1-.2 0-.4.4-.4 1zM7.5 124.9c-.3.5-.2 1.2.3 1.5.5.3.9-.1.9-.9 0-1.7-.3-1.9-1.2-.6zM503 126c0 .5.5 1 1.1 1 .5 0 .7-.5.4-1-.3-.6-.8-1-1.1-1-.2 0-.4.4-.4 1zM503 142c0 .5.5 1 1.1 1 .5 0 .7-.5.4-1-.3-.6-.8-1-1.1-1-.2 0-.4.4-.4 1zM7.5 148.9c-.3.5-.2 1.2.3 1.5.5.3.9-.1.9-.9 0-1.7-.3-1.9-1.2-.6zM503 158c0 .5.5 1 1.1 1 .5 0 .7-.5.4-1-.3-.6-.8-1-1.1-1-.2 0-.4.4-.4 1zM7.5 172.9c-.3.5-.2 1.2.3 1.5.5.3.9-.1.9-.9 0-1.7-.3-1.9-1.2-.6zM503 174c0 .5.5 1 1.1 1 .5 0 .7-.5.4-1-.3-.6-.8-1-1.1-1-.2 0-.4.4-.4 1zM503 190c0 .5.5 1 1.1 1 .5 0 .7-.5.4-1-.3-.6-.8-1-1.1-1-.2 0-.4.4-.4 1zM7.5 196.9c-.3.5-.2 1.2.3 1.5.5.3.9-.1.9-.9 0-1.7-.3-1.9-1.2-.6zM503 206c0 .5.5 1 1.1 1 .5 0 .7-.5.4-1-.3-.6-.8-1-1.1-1-.2 0-.4.4-.4 1zM7.5 220.9c-.3.5-.2 1.2.3 1.5.5.3.9-.1.9-.9 0-1.7-.3-1.9-1.2-.6zM503 222c0 .5.5 1 1.1 1 .5 0 .7-.5.4-1-.3-.6-.8-1-1.1-1-.2 0-.4.4-.4 1zM503 238c0 .5.5 1 1.1 1 .5 0 .7-.5.4-1-.3-.6-.8-1-1.1-1-.2 0-.4.4-.4 1zM7.5 244.9c-.3.5-.2 1.2.3 1.5.5.3.9-.1.9-.9 0-1.7-.3-1.9-1.2-.6zM503 254c0 .5.5 1 1.1 1 .5 0 .7-.5.4-1-.3-.6-.8-1-1.1-1-.2 0-.4.4-.4 1zM7.5 268.9c-.3.5-.2 1.2.3 1.5.5.3.9-.1.9-.9 0-1.7-.3-1.9-1.2-.6zM503 270c0 .5.5 1 1.1 1 .5 0 .7-.5.4-1-.3-.6-.8-1-1.1-1-.2 0-.4.4-.4 1zM503 286c0 .5.5 1 1.1 1 .5 0 .7-.5.4-1-.3-.6-.8-1-1.1-1-.2 0-.4.4-.4 1zM7.5 292.9c-.3.5-.2 1.2.3 1.5.5.3.9-.1.9-.9 0-1.7-.3-1.9-1.2-.6zM503 302c0 .5.5 1 1.1 1 .5 0 .7-.5.4-1-.3-.6-.8-1-1.1-1-.2 0-.4.4-.4 1zM7.5 316.9c-.3.5-.2 1.2.3 1.5.5.3.9-.1.9-.9 0-1.7-.3-1.9-1.2-.6zM503 318c0 .5.5 1 1.1 1 .5 0 .7-.5.4-1-.3-.6-.8-1-1.1-1-.2 0-.4.4-.4 1zM503 334c0 .5.5 1 1.1 1 .5 0 .7-.5.4-1-.3-.6-.8-1-1.1-1-.2 0-.4.4-.4 1zM7.5 340.9c-.3.5-.2 1.2.3 1.5.5.3.9-.1.9-.9 0-1.7-.3-1.9-1.2-.6zM503 350c0 .5.5 1 1.1 1 .5 0 .7-.5.4-1-.3-.6-.8-1-1.1-1-.2 0-.4.4-.4 1zM7.5 364.9c-.3.5-.2 1.2.3 1.5.5.3.9-.1.9-.9 0-1.7-.3-1.9-1.2-.6zM503 366c0 .5.5 1 1.1 1 .5 0 .7-.5.4-1-.3-.6-.8-1-1.1-1-.2 0-.4.4-.4 1zM503 382c0 .5.5 1 1.1 1 .5 0 .7-.5.4-1-.3-.6-.8-1-1.1-1-.2 0-.4.4-.4 1zM7.5 388.9c-.3.5-.2 1.2.3 1.5.5.3.9-.1.9-.9 0-1.7-.3-1.9-1.2-.6zM503 398c0 .5.5 1 1.1 1 .5 0 .7-.5.4-1-.3-.6-.8-1-1.1-1-.2 0-.4.4-.4 1zM7.5 412.9c-.3.5-.2 1.2.3 1.5.5.3.9-.1.9-.9 0-1.7-.3-1.9-1.2-.6zM503 414c0 .5.5 1 1.1 1 .5 0 .7-.5.4-1-.3-.6-.8-1-1.1-1-.2 0-.4.4-.4 1zM503 430c0 .5.5 1 1.1 1 .5 0 .7-.5.4-1-.3-.6-.8-1-1.1-1-.2 0-.4.4-.4 1zM7.5 436.9c-.3.5-.2 1.2.3 1.5.5.3.9-.1.9-.9 0-1.7-.3-1.9-1.2-.6zM503 446c0 .5.5 1 1.1 1 .5 0 .7-.5.4-1-.3-.6-.8-1-1.1-1-.2 0-.4.4-.4 1zM7.5 460.9c-.3.5-.2 1.2.3 1.5.5.3.9-.1.9-.9 0-1.7-.3-1.9-1.2-.6zM503 462c0 .5.5 1 1.1 1 .5 0 .7-.5.4-1-.3-.6-.8-1-1.1-1-.2 0-.4.4-.4 1zM503 478c0 .5.5 1 1.1 1 .5 0 .7-.5.4-1-.3-.6-.8-1-1.1-1-.2 0-.4.4-.4 1zM7.5 484.9c-.3.5-.2 1.2.3 1.5.5.3.9-.1.9-.9 0-1.7-.3-1.9-1.2-.6zM503 494c0 .5.5 1 1.1 1 .5 0 .7-.5.4-1-.3-.6-.8-1-1.1-1-.2 0-.4.4-.4 1zM11.5 504c.3.5.8 1 1.1 1 .2 0 .4-.5.4-1 0-.6-.5-1-1.1-1-.5 0-.7.4-.4 1zM31 504.1c0 .6.5.7 1 .4.6-.3 1-.1 1 .4 0 .6.4 1.1.8 1.1 1.7 0 .8-2.6-1-2.7-1-.1-1.8.3-1.8.8zM36.1 504.6c0 1.1.3 1.4.6.6.3-.7.2-1.6-.1-1.9-.3-.4-.6.2-.5 1.3zM38.4 505c0 1.3.4 1.6 1.1 1 .7-.6 1.6-.5 2.5.3 1 .9 1.1.9.6 0-.4-.7-1.5-1.7-2.4-2.2-1.4-.7-1.8-.5-1.8.9zM59.6 504.5c.4.8.8 1.5 1 1.5.2 0 .4-.7.4-1.5s-.4-1.5-1-1.5c-.5 0-.7.7-.4 1.5zM62.4 505c0 1.3.4 1.6 1.1 1 .7-.6 1.6-.5 2.5.3 1 .9 1.1.9.6 0-.4-.7-1.5-1.7-2.4-2.2-1.4-.7-1.8-.5-1.8.9zM79 504.1c0 .6.5.7 1 .4.6-.3 1-.1 1 .4 0 .6.4 1.1.8 1.1 1.7 0 .8-2.6-1-2.7-1-.1-1.8.3-1.8.8zM84.1 504.6c0 1.1.3 1.4.6.6.3-.7.2-1.6-.1-1.9-.3-.4-.6.2-.5 1.3zM86.4 505c0 1.3.4 1.6 1.1 1 .7-.6 1.6-.5 2.5.3 1 .9 1.1.9.6 0-.4-.7-1.5-1.7-2.4-2.2-1.4-.7-1.8-.5-1.8.9zM107.6 504.5c.8 1.9 1.4 1.9 1.4 0 0-.8-.4-1.5-1-1.5-.5 0-.7.7-.4 1.5zM110.4 505c0 1.3.4 1.6 1.1 1 .7-.6 1.6-.5 2.5.3 1 .9 1.1.9.6 0-.4-.7-1.5-1.7-2.4-2.2-1.4-.7-1.8-.5-1.8.9zM127 504.1c0 .6.5.7 1 .4.6-.3 1-.1 1 .4 0 .6.4 1.1.8 1.1 1.7 0 .8-2.6-1-2.7-1-.1-1.8.3-1.8.8zM132.1 504.6c0 1.1.3 1.4.6.6.3-.7.2-1.6-.1-1.9-.3-.4-.6.2-.5 1.3zM134.4 505c0 1.3.4 1.6 1.1 1 .7-.6 1.6-.5 2.5.3 1 .9 1.1.9.6 0-.4-.7-1.5-1.7-2.4-2.2-1.4-.7-1.8-.5-1.8.9zM155.6 504.5c.4.8.8 1.5 1 1.5.2 0 .4-.7.4-1.5s-.4-1.5-1-1.5c-.5 0-.7.7-.4 1.5zM158.4 505c0 1.3.4 1.6 1.1 1 .7-.6 1.6-.5 2.5.3 1 .9 1.1.9.6 0-.4-.7-1.5-1.7-2.4-2.2-1.4-.7-1.8-.5-1.8.9zM175 504.1c0 .6.5.7 1 .4.6-.3 1-.1 1 .4 0 .6.4 1.1.8 1.1 1.7 0 .8-2.6-1-2.7-1-.1-1.8.3-1.8.8zM180.1 504.6c0 1.1.3 1.4.6.6.3-.7.2-1.6-.1-1.9-.3-.4-.6.2-.5 1.3zM182.4 505c0 1.3.4 1.6 1.1 1 .7-.6 1.6-.5 2.5.3 1 .9 1.1.9.6 0-.4-.7-1.5-1.7-2.4-2.2-1.4-.7-1.8-.5-1.8.9zM203.6 504.5c.4.8.8 1.5 1 1.5.2 0 .4-.7.4-1.5s-.4-1.5-1-1.5c-.5 0-.7.7-.4 1.5zM206.4 505c0 1.3.4 1.6 1.1 1 .7-.6 1.6-.5 2.5.3 1 .9 1.1.9.6 0-.4-.7-1.5-1.7-2.4-2.2-1.4-.7-1.8-.5-1.8.9zM223 504.1c0 .6.5.7 1 .4.6-.3 1-.1 1 .4 0 .6.4 1.1.8 1.1 1.7 0 .8-2.6-1-2.7-1-.1-1.8.3-1.8.8zM228.1 504.6c0 1.1.3 1.4.6.6.3-.7.2-1.6-.1-1.9-.3-.4-.6.2-.5 1.3zM230.4 505c0 1.3.4 1.6 1.1 1 .7-.6 1.6-.5 2.5.3 1 .9 1.1.9.6 0-.4-.7-1.5-1.7-2.4-2.2-1.4-.7-1.8-.5-1.8.9zM251.6 504.5c.4.8.8 1.5 1 1.5.2 0 .4-.7.4-1.5s-.4-1.5-1-1.5c-.5 0-.7.7-.4 1.5zM254.4 505c0 1.3.4 1.6 1.1 1 .7-.6 1.6-.5 2.5.3 1 .9 1.1.9.6 0-.4-.7-1.5-1.7-2.4-2.2-1.4-.7-1.8-.5-1.8.9zM271 504.1c0 .6.5.7 1 .4.6-.3 1-.1 1 .4 0 .6.4 1.1.8 1.1 1.7 0 .8-2.6-1-2.7-1-.1-1.8.3-1.8.8zM276.1 504.6c0 1.1.3 1.4.6.6.3-.7.2-1.6-.1-1.9-.3-.4-.6.2-.5 1.3zM278.4 505c0 1.3.4 1.6 1.1 1 .7-.6 1.6-.5 2.5.3 1 .9 1.1.9.6 0-.4-.7-1.5-1.7-2.4-2.2-1.4-.7-1.8-.5-1.8.9zM299.6 504.5c.8 1.9 1.4 1.9 1.4 0 0-.8-.4-1.5-1-1.5-.5 0-.7.7-.4 1.5zM302.4 505c0 1.3.4 1.6 1.1 1 .7-.6 1.6-.5 2.5.3 1 .9 1.1.9.6 0-.4-.7-1.5-1.7-2.4-2.2-1.4-.7-1.8-.5-1.8.9zM319 504.1c0 .6.5.7 1 .4.6-.3 1-.1 1 .4 0 .6.4 1.1.8 1.1 1.7 0 .8-2.6-1-2.7-1-.1-1.8.3-1.8.8zM324.1 504.6c0 1.1.3 1.4.6.6.3-.7.2-1.6-.1-1.9-.3-.4-.6.2-.5 1.3zM326.4 505c0 1.3.4 1.6 1.1 1 .7-.6 1.6-.5 2.5.3 1 .9 1.1.9.6 0-.4-.7-1.5-1.7-2.4-2.2-1.4-.7-1.8-.5-1.8.9zM347.6 504.5c.8 1.9 1.4 1.9 1.4 0 0-.8-.4-1.5-1-1.5-.5 0-.7.7-.4 1.5zM350.4 505c0 1.3.4 1.6 1.1 1 .7-.6 1.6-.5 2.5.3 1 .9 1.1.9.6 0-.4-.7-1.5-1.7-2.4-2.2-1.4-.7-1.8-.5-1.8.9zM367 504.1c0 .6.5.7 1 .4.6-.3 1-.1 1 .4 0 .6.4 1.1.8 1.1 1.7 0 .8-2.6-1-2.7-1-.1-1.8.3-1.8.8zM372.1 504.6c0 1.1.3 1.4.6.6.3-.7.2-1.6-.1-1.9-.3-.4-.6.2-.5 1.3zM374.4 505c0 1.3.4 1.6 1.1 1 .7-.6 1.6-.5 2.5.3 1 .9 1.1.9.6 0-.4-.7-1.5-1.7-2.4-2.2-1.4-.7-1.8-.5-1.8.9zM395.6 504.5c.8 1.9 1.4 1.9 1.4 0 0-.8-.4-1.5-1-1.5-.5 0-.7.7-.4 1.5zM398.4 505c0 1.3.4 1.6 1.1 1 .7-.6 1.6-.5 2.5.3 1 .9 1.1.9.6 0-.4-.7-1.5-1.7-2.4-2.2-1.4-.7-1.8-.5-1.8.9zM415 504.1c0 .6.5.7 1 .4.6-.3 1-.1 1 .4 0 .6.4 1.1.8 1.1 1.7 0 .8-2.6-1-2.7-1-.1-1.8.3-1.8.8zM420.1 504.6c0 1.1.3 1.4.6.6.3-.7.2-1.6-.1-1.9-.3-.4-.6.2-.5 1.3zM422.4 505c0 1.3.4 1.6 1.1 1 .7-.6 1.6-.5 2.5.3 1 .9 1.1.9.6 0-.4-.7-1.5-1.7-2.4-2.2-1.4-.7-1.8-.5-1.8.9zM443.6 504.5c.8 1.9 1.4 1.9 1.4 0 0-.8-.4-1.5-1-1.5-.5 0-.7.7-.4 1.5zM446.4 505c0 1.3.4 1.6 1.1 1 .7-.6 1.6-.5 2.5.3 1 .9 1.1.9.6 0-.4-.7-1.5-1.7-2.4-2.2-1.4-.7-1.8-.5-1.8.9zM463 504.1c0 .6.5.7 1 .4.6-.3 1-.1 1 .4 0 .6.4 1.1.8 1.1 1.7 0 .8-2.6-1-2.7-1-.1-1.8.3-1.8.8zM468.1 504.6c0 1.1.3 1.4.6.6.3-.7.2-1.6-.1-1.9-.3-.4-.6.2-.5 1.3zM470.4 505c0 1.3.4 1.6 1.1 1 .7-.6 1.6-.5 2.5.3 1 .9 1.1.9.6 0-.4-.7-1.5-1.7-2.4-2.2-1.4-.7-1.8-.5-1.8.9zM490.5 504c-.3.5-.2 1 .4 1 .5 0 1.3-.5 1.6-1 .3-.6.2-1-.4-1-.5 0-1.3.4-1.6 1zM493.6 504.6c-.3.9-.4 1.9-.1 2.2.3.3.5.1.5-.5s1-.9 2.3-.7c1.2.2 1.5.1.7-.2-.8-.4-1.8-1.1-2.1-1.6-.3-.5-.9-.2-1.3.8zM57 505c0 .5.5 1 1.1 1 .5 0 .7-.5.4-1-.3-.6-.8-1-1.1-1-.2 0-.4.4-.4 1zM105 505c0 .5.5 1 1.1 1 .5 0 .7-.5.4-1-.3-.6-.8-1-1.1-1-.2 0-.4.4-.4 1zM153 505c0 .5.5 1 1.1 1 .5 0 .7-.5.4-1-.3-.6-.8-1-1.1-1-.2 0-.4.4-.4 1zM201 505c0 .5.5 1 1.1 1 .5 0 .7-.5.4-1-.3-.6-.8-1-1.1-1-.2 0-.4.4-.4 1zM249 505c0 .5.5 1 1.1 1 .5 0 .7-.5.4-1-.3-.6-.8-1-1.1-1-.2 0-.4.4-.4 1zM297 505c0 .5.5 1 1.1 1 .5 0 .7-.5.4-1-.3-.6-.8-1-1.1-1-.2 0-.4.4-.4 1zM345 505c0 .5.5 1 1.1 1 .5 0 .7-.5.4-1-.3-.6-.8-1-1.1-1-.2 0-.4.4-.4 1zM393 505c0 .5.5 1 1.1 1 .5 0 .7-.5.4-1-.3-.6-.8-1-1.1-1-.2 0-.4.4-.4 1zM441 505c0 .5.5 1 1.1 1 .5 0 .7-.5.4-1-.3-.6-.8-1-1.1-1-.2 0-.4.4-.4 1zM15.6 505.8c-.2.4.4.8 1.4.8 1 0 1.6-.4 1.4-.8-.3-.4-.9-.8-1.4-.8-.5 0-1.1.4-1.4.8zM23.3 507.5c0 .8.4 1.2.9.9.5-.3.6-1 .3-1.5-.9-1.3-1.2-1.1-1.2.6zM47.3 507.5c0 .8.4 1.2.9.9.5-.3.6-1 .3-1.5-.9-1.3-1.2-1.1-1.2.6zM71.3 507.5c0 .8.4 1.2.9.9.5-.3.6-1 .3-1.5-.9-1.3-1.2-1.1-1.2.6zM95.3 507.5c0 .8.4 1.2.9.9.5-.3.6-1 .3-1.5-.9-1.3-1.2-1.1-1.2.6zM119.3 507.5c0 .8.4 1.2.9.9.5-.3.6-1 .3-1.5-.9-1.3-1.2-1.1-1.2.6zM143.3 507.5c0 .8.4 1.2.9.9.5-.3.6-1 .3-1.5-.9-1.3-1.2-1.1-1.2.6zM167.3 507.5c0 .8.4 1.2.9.9.5-.3.6-1 .3-1.5-.9-1.3-1.2-1.1-1.2.6zM191.3 507.5c0 .8.4 1.2.9.9.5-.3.6-1 .3-1.5-.9-1.3-1.2-1.1-1.2.6zM215.3 507.5c0 .8.4 1.2.9.9.5-.3.6-1 .3-1.5-.9-1.3-1.2-1.1-1.2.6zM239.3 507.5c0 .8.4 1.2.9.9.5-.3.6-1 .3-1.5-.9-1.3-1.2-1.1-1.2.6zM263.3 507.5c0 .8.4 1.2.9.9.5-.3.6-1 .3-1.5-.9-1.3-1.2-1.1-1.2.6zM287.3 507.5c0 .8.4 1.2.9.9.5-.3.6-1 .3-1.5-.9-1.3-1.2-1.1-1.2.6zM311.3 507.5c0 .8.4 1.2.9.9.5-.3.6-1 .3-1.5-.9-1.3-1.2-1.1-1.2.6zM335.3 507.5c0 .8.4 1.2.9.9.5-.3.6-1 .3-1.5-.9-1.3-1.2-1.1-1.2.6zM359.3 507.5c0 .8.4 1.2.9.9.5-.3.6-1 .3-1.5-.9-1.3-1.2-1.1-1.2.6zM383.3 507.5c0 .8.4 1.2.9.9.5-.3.6-1 .3-1.5-.9-1.3-1.2-1.1-1.2.6zM407.3 507.5c0 .8.4 1.2.9.9.5-.3.6-1 .3-1.5-.9-1.3-1.2-1.1-1.2.6zM431.3 507.5c0 .8.4 1.2.9.9.5-.3.6-1 .3-1.5-.9-1.3-1.2-1.1-1.2.6zM455.3 507.5c0 .8.4 1.2.9.9.5-.3.6-1 .3-1.5-.9-1.3-1.2-1.1-1.2.6zM479.3 507.5c0 .8.4 1.2.9.9.5-.3.6-1 .3-1.5-.9-1.3-1.2-1.1-1.2.6z"/></svg>